<?xml version="1.0" standalone="no"?>
<!DOCTYPE svg PUBLIC "-//W3C//DTD SVG 20010904//EN"
 "http://www.w3.org/TR/2001/REC-SVG-20010904/DTD/svg10.dtd">
<svg version="1.0" xmlns="http://www.w3.org/2000/svg"
 width="720.000000pt" height="1280.000000pt" viewBox="0 0 720.000000 1280.000000"
 preserveAspectRatio="xMidYMid meet">

<g transform="translate(0.000000,1280.000000) scale(0.100000,-0.100000)"
fill="#000000" stroke="none">
<path d="M1138 12662 c-359 -369 -447 -592 -557 -1417 -94 -701 -141 -1400
-141 -2115 0 -1119 75 -2015 206 -2467 30 -102 132 -384 145 -397 13 -14 11
27 -6 124 -26 147 -44 304 -55 467 -13 212 -16 535 -5 553 5 8 9 28 8 45 0 21
1 23 4 8 5 -24 19 -31 25 -13 2 7 9 6 20 -2 12 -10 28 -86 62 -298 25 -157 50
-323 56 -370 13 -115 29 -460 31 -712 2 -194 9 -258 22 -212 3 11 20 98 38
194 18 96 35 166 37 155 1 -11 7 -29 13 -40 5 -11 18 -54 30 -95 17 -64 21
-116 26 -356 3 -154 3 -305 -1 -336 l-7 -56 -122 -1 c-83 -1 -142 3 -182 14
-33 8 -87 15 -121 15 -68 0 -75 -4 -177 -100 -33 -30 -80 -68 -105 -84 -26
-16 -68 -48 -94 -72 -45 -42 -50 -44 -106 -44 -86 0 -182 -11 -182 -22 0 -5
88 -6 205 -2 l205 7 25 -23 c14 -13 25 -28 25 -34 0 -7 -62 -12 -188 -14 -103
-2 -206 -5 -229 -9 l-43 -5 0 -2474 0 -2474 3600 0 3600 0 0 2213 0 2214 -37
16 c-57 25 -316 124 -423 162 -145 51 -158 58 -265 151 -55 47 -127 110 -159
138 -33 28 -102 88 -153 133 -116 102 -152 123 -281 163 -56 17 -100 36 -97
41 4 5 1 9 -5 9 -6 0 -9 4 -6 9 4 5 1 11 -5 13 -14 5 -19 55 -9 98 4 19 26
105 49 190 118 450 149 568 158 612 3 15 9 25 14 22 5 -3 9 2 9 11 0 24 48
125 60 125 5 0 10 6 10 14 0 20 40 28 47 9 10 -25 -6 -406 -22 -538 -8 -66
-14 -129 -14 -140 l0 -20 9 20 c15 32 285 1338 307 1482 3 18 11 38 19 44 8 6
14 18 14 25 0 18 38 56 50 49 4 -3 11 3 13 12 4 17 5 17 6 0 0 -10 6 -15 11
-12 6 3 10 4 10 2 0 -7 96 -555 120 -682 26 -140 80 -365 92 -385 11 -17 7 27
-17 195 -32 227 -30 779 5 1600 12 274 35 1018 51 1630 16 613 5 1105 -36
1580 -48 554 -60 639 -110 791 -60 182 -163 360 -326 564 -76 96 -225 247
-234 238 -4 -3 18 -30 47 -60 103 -103 168 -179 256 -301 99 -136 156 -235
201 -347 36 -88 30 -81 -96 110 -177 269 -288 407 -421 521 l-93 79 -2251 0
-2250 0 -132 -132 c-339 -342 -499 -620 -572 -994 -27 -140 -42 -357 -34 -484
6 -95 8 -94 46 40 26 95 85 256 122 338 l19 44 6 -474 c4 -260 10 -493 15
-518 5 -25 10 -42 11 -38 47 263 91 420 160 568 l21 45 -6 -48 c-27 -228 -30
-363 -14 -592 11 -155 18 -205 30 -205 4 0 10 37 14 83 22 264 69 499 156 770
22 70 42 127 43 127 1 0 2 -199 3 -443 0 -398 19 -878 40 -1037 3 -25 3 -42
-1 -39 -7 8 -55 372 -79 603 -9 82 -16 223 -16 315 0 102 -4 160 -9 151 -17
-29 -70 -255 -86 -365 -20 -141 -45 -418 -46 -515 -2 -137 -12 -147 -33 -35
-10 55 -24 134 -32 175 -7 41 -21 125 -29 185 -18 130 -24 159 -31 152 -9 -9
-41 -256 -59 -457 -9 -102 -19 -192 -23 -200 -15 -42 -132 928 -132 1099 0 23
-4 41 -9 41 -9 0 -78 -275 -101 -403 -7 -37 -14 -66 -16 -65 -1 2 -8 63 -15
136 -7 73 -15 129 -19 125 -4 -4 -15 -109 -24 -233 -9 -124 -19 -245 -22 -270
-12 -108 -36 -1160 -39 -1760 -4 -690 2 -876 45 -1364 12 -131 19 -240 17
-242 -16 -16 -94 591 -117 911 -35 491 -51 1493 -31 1950 46 1055 178 2041
321 2389 47 117 72 161 157 280 75 104 55 81 223 250 73 75 127 136 118 136
-8 0 -76 -62 -150 -138z m4671 -1107 c78 -204 116 -339 157 -545 9 -47 17 -86
19 -88 1 -1 7 62 14 140 6 79 14 163 17 188 l6 45 23 -80 c13 -44 35 -125 50
-180 23 -85 45 -138 45 -112 0 4 7 49 15 100 22 143 34 288 36 457 1 85 5 159
7 164 16 30 113 -318 146 -519 29 -183 73 -550 80 -675 6 -99 5 -96 -45 210
-17 102 -39 229 -50 282 -30 151 -99 340 -99 272 0 -126 -69 -564 -82 -524 -3
8 -25 76 -48 150 -24 74 -46 139 -51 144 -5 5 -6 -65 -2 -155 6 -165 -4 -315
-33 -508 -20 -138 -36 -223 -39 -219 -2 2 -8 88 -14 192 -19 319 -47 510 -123
836 -37 162 -58 223 -58 174 -1 -84 -52 -499 -85 -691 -37 -214 -138 -623
-154 -623 -3 0 -7 42 -8 93 -5 205 -35 496 -74 730 -11 66 -19 121 -17 123 6
5 96 -251 108 -306 5 -25 10 -60 10 -77 0 -99 39 38 74 267 27 170 72 720 77
930 0 34 2 33 31 -30 16 -36 47 -110 67 -165z m-2842 -73 c7 -4 -11 -8 -40 -9
-42 -1 -46 1 -22 7 41 11 48 11 62 2z m296 1 c-51 -2 -135 -2 -185 0 -51 1
-10 3 92 3 102 0 143 -2 93 -3z m160 0 c-13 -2 -33 -2 -45 0 -13 2 -3 4 22 4
25 0 35 -2 23 -4z m160 0 c-13 -2 -33 -2 -45 0 -13 2 -3 4 22 4 25 0 35 -2 23
-4z m230 0 c-35 -2 -91 -2 -125 0 -35 2 -7 3 62 3 69 0 97 -1 63 -3z m260 -10
c-7 -2 -19 -2 -25 0 -7 3 -2 5 12 5 14 0 19 -2 13 -5z m80 0 c-7 -2 -19 -2
-25 0 -7 3 -2 5 12 5 14 0 19 -2 13 -5z m-58 -24 c240 -12 275 -16 268 -35 -3
-9 2 -14 13 -14 16 0 17 -2 4 -10 -13 -9 -13 -10 0 -10 12 -1 11 -3 -3 -11
-12 -7 -16 -17 -11 -31 4 -14 2 -18 -5 -14 -14 9 -14 11 5 -76 20 -87 21 -286
2 -367 l-13 -54 -85 -18 c-206 -45 -200 -45 -306 -22 -86 19 -102 19 -135 8
l-39 -14 -30 44 c-41 60 -104 89 -191 89 -56 0 -74 -4 -108 -27 -22 -15 -50
-45 -61 -67 l-20 -40 -70 0 c-38 0 -71 4 -74 8 -8 13 30 84 70 130 22 26 63
55 112 79 68 34 84 38 152 38 89 -1 155 -29 233 -102 68 -63 73 -62 240 60 56
41 67 54 67 78 0 30 -23 49 -58 49 -10 0 -55 -27 -99 -60 l-81 -61 -67 45
c-132 91 -260 100 -409 28 -44 -21 -100 -58 -124 -81 -45 -44 -110 -137 -131
-189 -12 -30 -14 -30 -106 -37 -59 -5 -112 -3 -146 4 -30 7 -101 11 -159 10
l-104 -2 -8 29 c-21 76 -31 297 -19 408 12 111 9 152 -12 139 -6 -4 -7 -1 -1
8 4 8 7 26 6 40 -3 26 -3 27 95 38 234 29 932 33 1408 10z m-658 -397 c1 -11
-20 -31 -58 -56 -72 -47 -115 -94 -146 -163 -21 -46 -28 -53 -54 -53 -16 0
-29 3 -29 7 0 19 84 144 126 186 43 44 123 95 149 97 6 0 11 -8 12 -18z m194
-232 c34 -18 21 -30 -33 -30 -74 0 -102 9 -87 26 14 16 92 19 120 4z m-231
-68 c0 -36 -13 -40 -125 -39 -82 1 -125 -3 -170 -17 -73 -22 -179 -37 -217
-29 -25 5 -28 10 -28 44 l0 38 108 1 c59 0 136 4 172 9 36 4 109 8 163 9 84 0
97 -2 97 -16z m915 -32 c12 -19 -36 -148 -122 -330 -52 -109 -179 -334 -197
-349 -16 -13 -1194 -17 -1207 -4 -18 18 -156 619 -144 631 3 3 51 0 108 -6
127 -15 211 -15 277 -1 28 6 54 9 56 6 3 -3 -1 -28 -10 -56 -8 -28 -18 -78
-22 -111 l-7 -60 56 -25 c122 -56 360 -87 462 -60 144 38 255 163 255 288 l0
40 73 -7 c216 -20 223 -20 274 4 96 46 137 57 148 40z m-1072 -77 c10 -28 41
-79 68 -112 28 -35 44 -63 38 -67 -6 -3 -8 -12 -5 -20 9 -24 -52 27 -78 65
-14 20 -38 66 -55 104 -17 37 -35 67 -40 67 -12 0 -50 -120 -53 -170 l-3 -35
70 -22 c39 -12 88 -27 110 -32 31 -8 41 -15 41 -31 0 -24 2 -24 -93 -4 -69 14
-183 56 -183 68 0 15 32 166 41 193 8 27 17 34 52 42 62 14 68 11 90 -46z
m105 51 c24 -5 31 -12 36 -39 4 -21 20 -46 43 -65 34 -31 39 -32 106 -28 61 3
72 7 93 31 13 15 26 43 30 63 6 32 9 35 38 32 27 -3 31 -7 34 -37 5 -51 -5
-77 -45 -122 -98 -109 -237 -114 -337 -12 -44 45 -84 109 -100 161 -7 20 -4
22 32 22 22 0 53 -3 70 -6z m212 -18 c0 -22 -17 -36 -41 -36 -16 0 -29 2 -29
4 0 2 -3 11 -6 20 -5 13 2 16 35 16 23 0 41 -2 41 -4z m-355 -86 c10 -25 36
-69 58 -99 l40 -54 -36 7 c-19 4 -58 13 -86 22 -59 17 -61 26 -35 115 25 85
27 86 59 9z m16 -592 c-8 -9 -45 -13 -111 -13 -66 0 -103 4 -112 13 -10 9 13
12 112 12 99 0 121 -2 111 -12z m2145 -444 c5 -86 8 -157 6 -158 -1 -2 -14 -1
-27 2 l-25 4 0 152 c0 84 3 155 6 159 3 3 12 3 18 1 9 -4 16 -52 22 -160z
m-722 150 c30 -11 16 -33 -26 -44 -74 -20 -250 -70 -348 -100 -142 -44 -304
-132 -364 -199 -20 -22 -15 -41 6 -24 16 13 222 94 308 121 82 27 407 112 426
112 11 0 13 -16 8 -87 -8 -131 -7 -128 -62 -141 -51 -11 -167 -60 -160 -67 2
-2 42 11 88 30 126 51 124 52 115 -47 -4 -46 -7 -83 -8 -84 -1 0 -55 -28 -120
-62 -65 -34 -142 -77 -170 -96 -65 -44 -154 -122 -146 -130 3 -3 27 11 55 30
90 65 90 58 -3 -43 -51 -55 -93 -103 -93 -107 0 -17 27 0 93 57 109 94 156
130 226 176 l65 42 29 -91 c21 -65 27 -100 23 -125 l-7 -35 -144 0 c-90 0
-145 -4 -145 -10 0 -6 32 -11 73 -12 l72 -2 -63 -3 c-107 -7 -58 -23 68 -23
65 0 121 -3 124 -8 4 -7 -39 -288 -50 -324 -3 -10 -1 -18 4 -18 8 0 45 138 73
278 13 62 13 62 49 63 28 0 31 2 15 9 -12 5 95 8 252 7 150 -1 273 -5 273 -9
0 -5 -30 -8 -66 -8 -46 0 -63 -3 -58 -11 4 -8 28 -10 71 -6 l64 6 -3 -27 c-3
-25 -7 -27 -58 -33 l-55 -6 57 -1 57 -2 -5 -97 c-18 -329 -58 -694 -100 -913
-16 -87 -17 -90 -6 -90 4 0 15 35 25 78 9 42 28 131 42 197 36 164 72 399 101
655 13 118 24 224 24 234 0 17 6 18 56 13 46 -5 55 -3 50 9 -3 8 1 14 8 14 11
0 16 -23 22 -87 10 -122 -2 -1463 -17 -1828 l-11 -300 -57 -75 c-59 -80 -528
-557 -664 -677 -259 -227 -566 -469 -716 -562 -185 -116 -306 -136 -478 -77
-94 32 -119 45 -263 144 -560 382 -1011 786 -1346 1206 l-73 91 -1 65 c0 36
-10 272 -21 525 -11 253 -23 693 -26 978 -5 487 -5 517 12 517 13 0 16 -6 11
-24 -5 -21 -2 -25 31 -33 l37 -9 27 -214 c50 -406 116 -685 256 -1075 52 -145
53 -148 59 -142 3 3 -6 47 -20 99 -61 227 -126 870 -126 1251 l0 177 235 2
c129 1 253 2 275 3 22 0 41 -4 43 -10 1 -6 -54 -13 -142 -17 -79 -4 -147 -10
-150 -14 -3 -3 63 -5 148 -3 117 3 155 1 158 -8 3 -9 -9 -13 -41 -13 -25 0
-46 -4 -46 -9 0 -4 21 -6 48 -3 l47 4 34 -136 c18 -75 38 -136 43 -136 6 0 8
6 5 13 -11 28 -39 237 -34 251 3 8 16 16 29 19 18 3 16 5 -8 6 -27 1 -32 5
-36 30 -4 26 -1 30 25 35 16 3 51 6 78 6 27 0 49 5 49 10 0 6 -35 10 -84 10
l-84 0 -11 103 c-7 56 -14 115 -16 130 -3 20 -1 26 8 21 52 -31 135 -93 205
-153 121 -104 133 -92 24 23 -28 29 -74 74 -102 100 -29 25 -48 46 -42 46 10
0 104 -51 155 -84 15 -10 27 -14 27 -9 0 16 -142 117 -222 158 l-75 39 -7 84
c-3 47 -4 87 -1 90 11 12 102 -20 174 -61 46 -26 103 -71 148 -116 40 -41 73
-69 73 -64 0 21 -139 150 -200 186 -36 20 -96 47 -133 58 -37 11 -70 26 -72
32 -2 7 -6 51 -10 99 l-6 86 39 -9 c115 -25 441 -145 534 -196 26 -14 51 -23
55 -19 12 12 -108 124 -166 154 -73 39 -221 93 -346 127 -55 15 -106 28 -113
31 -7 2 -12 21 -12 49 l0 45 198 0 c339 0 1437 13 1441 16 7 7 469 4 485 -2z
m-2256 -19 c6 -3 12 -15 12 -28 l0 -24 -117 28 c-65 16 -122 31 -128 32 -5 2
42 2 105 0 63 -3 121 -6 128 -8z m2766 -47 c6 -38 26 -300 26 -344 l0 -30
-147 -12 c-82 -6 -192 -23 -247 -36 l-98 -24 7 70 c3 39 9 76 11 83 3 8 40 20
82 28 81 16 62 22 -23 7 -27 -4 -51 -7 -52 -6 -6 5 27 210 34 217 7 7 347 75
390 78 7 1 14 -14 17 -31z m-3385 -292 c-18 -20 -20 6 -12 136 l8 133 6 -130
c4 -71 3 -134 -2 -139z m506 233 c154 -38 141 -28 155 -122 6 -45 14 -92 17
-104 5 -21 1 -23 -33 -25 l-39 -1 37 -4 c24 -3 39 -10 42 -21 10 -36 28 -153
25 -157 -2 -1 -38 5 -79 16 -86 21 -197 37 -287 41 -63 3 -63 3 -63 33 0 17 3
47 6 67 l6 37 70 0 c39 0 73 3 76 6 3 3 -30 5 -72 5 l-78 0 6 38 c3 20 8 62
11 92 3 30 8 72 11 94 l6 38 52 -6 c28 -4 87 -16 131 -27z m3105 -269 c0 -73
-2 -76 -47 -64 -21 6 -23 12 -23 70 l0 64 35 0 35 0 0 -70z m-3600 -42 c0 -44
-2 -49 -15 -38 -15 12 -21 81 -9 93 15 14 24 -7 24 -55z m3605 -120 c2 -1 5
-51 6 -110 2 -99 1 -110 -22 -144 -26 -40 -75 -81 -84 -72 -4 3 -1 81 6 173
l13 167 39 -5 c21 -3 40 -7 42 -9z m-3591 -155 c4 -65 9 -138 12 -163 l5 -45
-35 34 -36 35 0 122 c0 122 2 131 37 133 7 1 13 -38 17 -116z m3288 -50 c39
-35 11 -108 -47 -119 -39 -7 -85 26 -85 62 0 57 89 96 132 57z m-2672 -63 c33
-33 26 -76 -17 -99 -38 -20 -80 -14 -102 16 -23 28 -21 54 7 86 21 24 86 23
112 -3z m2776 -76 c-4 -9 -21 -14 -51 -14 l-46 0 48 48 48 48 3 -34 c2 -19 1
-40 -2 -48z m-256 57 c0 -24 -13 -33 -34 -25 -27 10 -20 44 9 44 18 0 25 -5
25 -19z m-2376 -38 c3 -21 9 -48 12 -60 6 -22 4 -23 -72 -23 l-78 0 42 36 c24
20 49 49 58 65 18 36 29 31 38 -18z m2846 -15 c0 -23 -3 -29 -11 -21 -6 6 -8
20 -4 32 9 30 15 26 15 -11z m-3160 2 c0 -11 -6 -20 -14 -20 -18 0 -29 16 -21
30 11 18 35 11 35 -10z m2405 -10 c3 -5 -1 -10 -9 -10 -9 0 -16 5 -16 10 0 6
4 10 9 10 6 0 13 -4 16 -10z m-2904 -72 c-9 -20 -10 -18 -10 17 0 31 2 36 9
23 6 -10 7 -25 1 -40z m2796 25 c-20 -2 -52 -2 -70 0 -17 2 0 4 38 4 39 0 53
-2 32 -4z m-2717 -108 c0 -10 -10 -15 -32 -15 l-33 1 25 14 c32 18 40 18 40 0z
m3349 -2790 c-144 -572 -235 -983 -219 -999 5 -5 11 7 15 30 23 128 81 397
127 582 l52 214 17 -39 c9 -22 42 -78 72 -125 l55 -86 -28 -183 c-15 -101 -24
-188 -20 -192 4 -5 20 45 35 110 15 65 33 141 40 168 l12 50 12 -30 c27 -65
60 -196 81 -320 26 -146 33 -436 11 -443 -6 -2 -17 -9 -24 -16 -6 -7 -33 -22
-60 -35 -64 -31 -97 -87 -97 -165 0 -31 6 -72 14 -90 43 -104 -38 -331 -185
-519 -100 -127 -419 -426 -419 -392 0 3 14 52 31 108 28 95 98 398 114 495 4
23 3 42 -2 42 -4 0 -23 -73 -41 -163 -35 -173 -118 -483 -135 -505 -15 -19
-114 -68 -209 -103 -159 -58 -475 -129 -488 -110 -3 5 -15 13 -27 20 -12 6
-30 27 -39 46 -36 77 -120 117 -209 101 -40 -8 -99 -55 -120 -97 -8 -15 -25
-31 -37 -35 -13 -4 -25 -10 -28 -15 -8 -11 -159 25 -175 42 -18 19 -170 299
-271 500 -70 140 -112 235 -193 429 -6 14 -46 115 -89 224 -43 110 -84 202
-91 204 -8 3 -7 -8 4 -34 9 -22 41 -104 72 -184 132 -344 287 -676 457 -983
36 -66 68 -127 71 -138 5 -16 -21 -9 -182 46 -367 125 -503 188 -688 319 -133
95 -236 181 -371 309 l-101 96 3 48 c1 26 10 76 20 110 l17 63 -29 57 c-34 68
-74 98 -144 108 -27 4 -54 13 -61 21 -6 8 -19 14 -29 14 -31 0 -133 245 -161
385 -20 102 -18 445 4 549 10 48 23 83 34 92 31 22 63 38 68 32 10 -10 85
-280 105 -377 10 -52 27 -167 36 -255 21 -207 25 -225 35 -166 19 110 30 428
23 677 l-7 263 44 47 c25 27 64 74 88 106 29 38 47 55 54 48 6 -6 13 -111 16
-243 6 -220 7 -228 15 -135 9 103 2 329 -15 487 -10 90 -43 319 -54 367 -3 14
67 -49 182 -165 302 -303 685 -617 1048 -859 140 -94 165 -107 258 -139 187
-64 321 -35 546 118 153 104 430 326 646 517 137 121 603 584 631 626 9 14 18
24 20 23 1 -2 -60 -251 -137 -553z m-3747 248 c10 -9 18 -22 18 -28 0 -7 7
-18 15 -25 10 -8 13 -21 9 -33 -3 -11 -2 -17 3 -14 5 3 17 -24 27 -61 9 -37
26 -96 36 -132 27 -90 90 -311 90 -315 0 -10 -235 -159 -268 -171 -42 -15
-160 -18 -180 -5 -11 7 -4 49 36 222 28 118 62 275 77 349 33 167 56 225 92
228 15 1 35 -5 45 -15z m494 -186 c5 0 23 -19 41 -42 l31 -41 -53 -70 c-29
-38 -61 -77 -72 -86 -18 -16 -19 -16 -22 5 -9 72 -2 180 15 205 27 41 38 51
45 40 3 -5 10 -10 15 -11z m3610 -42 c23 -23 41 -173 40 -344 -1 -145 -3 -159
-25 -203 -21 -41 -29 -48 -55 -48 -23 0 -42 12 -83 54 -29 30 -55 67 -59 81
-6 24 33 222 73 366 15 58 52 109 79 109 9 0 22 -7 30 -15z m-215 -253 c-20
-170 -16 -164 -65 -90 -69 104 -70 110 -30 149 18 18 44 34 56 36 13 2 27 8
33 14 17 17 18 -7 6 -109z m-3838 -312 c-23 -97 -22 -407 1 -525 16 -80 89
-284 132 -367 12 -24 14 -36 5 -55 -6 -13 -8 -35 -5 -49 4 -14 1 -31 -7 -40
-7 -8 -17 -35 -23 -59 l-11 -43 -84 181 c-131 283 -287 589 -341 670 -48 71
-49 74 -38 116 10 41 14 44 102 85 50 24 134 68 186 99 52 31 95 55 96 54 1
-1 -5 -31 -13 -67z m-720 9 c55 -11 78 -29 37 -29 -39 0 -126 -41 -170 -80
-25 -23 -76 -62 -115 -87 -38 -25 -73 -50 -76 -55 -3 -5 -37 -8 -74 -7 l-69 2
35 29 c19 17 57 44 84 62 28 18 85 65 128 104 71 66 80 72 120 72 24 0 69 -5
100 -11z m4806 -204 c1 -50 -39 -357 -49 -368 -4 -4 -10 50 -13 120 -4 80 -16
171 -33 243 -14 63 -28 126 -31 140 -5 21 4 16 59 -35 59 -54 66 -64 67 -100z
m-4479 30 c0 -30 -11 -32 -27 -6 -10 15 -10 21 0 24 23 10 27 7 27 -18z m4649
-124 c29 -22 89 -63 132 -92 48 -31 81 -60 84 -73 2 -11 11 -57 19 -101 9 -44
27 -132 40 -195 77 -358 73 -568 -15 -855 l-31 -102 -62 -22 c-301 -112 -440
-154 -799 -245 -190 -49 -598 -136 -631 -136 -6 0 34 22 89 49 128 62 222 127
356 245 182 161 313 342 390 537 24 60 48 109 55 109 6 0 19 9 28 19 10 11 36
23 58 26 25 5 54 20 76 40 32 29 36 39 40 93 4 58 -3 91 -47 217 -5 13 19 103
71 260 43 132 78 246 78 253 0 20 13 14 69 -27z m-265 -614 c16 -33 17 -45 7
-78 -24 -78 -113 -55 -119 30 -4 59 19 93 61 89 26 -2 36 -10 51 -41z m-3744
-32 c7 -8 28 -15 47 -15 113 0 190 -120 147 -230 -9 -25 -17 -63 -18 -85 -1
-35 -5 -42 -38 -60 l-37 -20 -23 22 c-13 11 -39 24 -58 28 -57 12 -109 43
-130 78 -26 42 -26 116 -1 165 11 21 17 49 14 63 -4 20 2 31 22 48 32 25 58
27 75 6z m15 -375 c12 0 30 -9 40 -20 10 -11 31 -20 47 -20 22 0 58 -26 166
-123 176 -157 317 -270 427 -342 17 -11 89 -50 160 -87 72 -37 127 -67 124
-68 -4 0 -103 34 -220 75 -118 41 -324 111 -459 157 l-245 83 -77 190 c-42
105 -77 193 -78 196 0 4 21 -4 47 -17 25 -13 56 -24 68 -24z m4315 -246 c-31
-305 -138 -635 -338 -1044 -71 -146 -327 -592 -363 -633 -5 -7 -43 -62 -83
-124 -41 -62 -76 -109 -80 -106 -3 4 -6 1 -6 -6 0 -7 -23 -46 -50 -87 -60 -89
-316 -442 -337 -464 -8 -8 -53 -67 -101 -131 -48 -63 -99 -131 -115 -150 -15
-19 -31 -38 -35 -44 -17 -24 -88 -111 -98 -121 -5 -6 -24 -29 -41 -50 -129
-160 -279 -342 -295 -359 -21 -21 83 125 227 320 91 123 222 305 244 338 8 12
30 41 48 64 18 23 33 45 34 50 0 4 15 28 34 53 19 25 68 95 110 155 42 61 98
142 126 180 27 39 73 105 101 147 29 42 55 75 59 73 3 -2 6 1 6 8 0 7 33 64
74 127 242 373 411 697 669 1280 56 125 160 428 197 571 9 38 19 67 21 65 1
-2 -2 -53 -8 -112z m-3936 -230 c171 -59 487 -165 701 -236 215 -72 415 -140
445 -151 66 -26 122 -80 196 -192 72 -108 91 -131 100 -122 4 4 -2 17 -13 30
-11 12 -42 55 -68 96 -25 40 -67 95 -91 121 l-45 48 58 -14 c32 -9 63 -21 68
-27 6 -7 20 -17 32 -22 11 -6 36 -30 55 -55 40 -54 88 -80 146 -80 56 0 99 20
147 70 22 22 45 40 51 40 7 0 20 8 30 18 10 10 64 28 128 42 l111 26 -75 -79
c-41 -44 -103 -109 -137 -145 -35 -36 -61 -67 -58 -70 7 -7 87 69 159 151 126
145 160 160 531 233 425 84 893 207 1174 309 98 36 181 65 184 65 7 0 -25 -94
-77 -228 -55 -142 -181 -299 -365 -454 -228 -192 -410 -281 -671 -328 -487
-87 -1618 -55 -2084 60 -89 23 -240 80 -306 118 -80 46 -213 138 -305 211
l-90 72 -73 162 c-80 177 -182 418 -182 430 0 4 3 7 6 7 4 0 147 -48 318 -106z
m1651 -356 c22 -26 26 -39 21 -67 -11 -70 -92 -96 -141 -46 -27 26 -31 49 -15
92 24 63 91 73 135 21z m1632 -805 c-7 -14 -79 -137 -94 -162 l-15 -23 -39 38
c-21 21 -39 41 -39 45 0 4 24 19 54 32 30 14 71 37 92 51 41 28 48 31 41 19z
m-2899 -81 c28 -9 52 -19 52 -22 0 -3 -15 -21 -33 -38 l-34 -33 -36 55 c-42
63 -44 71 -19 61 9 -3 41 -14 70 -23z m145 -41 c23 -6 54 -12 69 -15 18 -4 48
-32 89 -82 l62 -76 -87 -86 -87 -86 -34 39 c-19 22 -32 45 -30 52 2 7 -1 15
-7 19 -7 5 -8 2 -4 -7 4 -8 -2 -3 -13 11 -11 14 -21 31 -21 38 0 6 -5 12 -10
12 -6 0 -14 8 -17 18 -4 9 -17 32 -30 51 -13 19 -23 37 -23 42 0 13 74 79 88
79 7 0 32 -4 55 -9z m2465 -73 c-36 -46 -86 -111 -113 -145 -26 -35 -51 -63
-54 -63 -3 0 -47 44 -98 98 l-91 98 121 23 c67 13 156 33 197 46 41 13 81 23
88 24 8 1 -15 -36 -50 -81z m114 -101 c-88 -140 -146 -227 -152 -227 -9 1
-110 96 -110 104 0 7 84 119 182 242 l48 60 46 -43 45 -43 -59 -93z m-2349
132 c108 -16 106 -14 51 -70 l-49 -50 -23 28 c-98 119 -99 110 21 92z m277
-40 c112 -12 116 -14 148 -48 17 -19 32 -38 32 -41 0 -3 -54 -62 -119 -131
-107 -111 -121 -122 -133 -107 -7 9 -51 62 -98 118 -47 56 -87 106 -89 112 -2
5 21 34 50 64 39 39 60 54 74 50 11 -2 72 -10 135 -17z m1777 -220 c-1 -4 -49
-64 -106 -135 l-105 -128 -98 103 c-54 56 -98 106 -98 111 0 5 38 62 85 126
47 65 85 121 85 125 0 4 8 9 18 12 12 3 49 -29 119 -102 56 -58 101 -109 100
-112z m-257 202 c0 -8 -45 -73 -128 -183 -19 -26 -39 -45 -44 -42 -4 3 -44 49
-88 104 -88 109 -89 105 20 109 36 2 97 6 135 11 103 11 105 11 105 1z m-1290
-9 c0 -5 -8 -16 -18 -25 -17 -16 -20 -15 -42 8 l-23 25 41 0 c23 0 42 -4 42
-8z m269 -9 c83 -3 150 -10 149 -14 -6 -16 -219 -259 -228 -259 -4 0 -54 49
-110 110 l-102 109 22 31 c25 35 20 34 269 23z m519 -84 c-35 -45 -78 -98 -96
-118 l-32 -36 -105 110 c-58 61 -105 113 -105 118 0 4 90 7 200 7 l201 0 -63
-81z m218 -15 c44 -53 85 -105 93 -115 12 -17 4 -29 -89 -134 -56 -63 -107
-118 -113 -122 -15 -9 -220 204 -213 222 3 8 47 66 97 130 120 149 119 149
225 19z m-428 -77 l75 -78 -25 -27 c-13 -15 -66 -73 -118 -130 l-94 -103 -98
98 c-54 54 -100 106 -103 115 -4 12 16 43 67 100 40 46 91 105 113 131 l40 48
34 -38 c19 -21 68 -73 109 -116z m-419 -100 c13 -18 4 -28 -108 -141 l-123
-121 -99 105 c-54 57 -99 108 -99 113 0 5 53 64 118 132 l117 124 90 -96 c50
-53 96 -105 104 -116z m-560 78 l100 -119 -77 -73 c-94 -90 -125 -109 -142
-88 -6 8 -9 19 -6 24 4 5 1 13 -5 17 -8 5 -9 3 -4 -7 9 -15 4 -10 -35 35 -14
16 -19 26 -11 21 9 -5 12 -3 9 6 -3 8 -11 14 -19 14 -8 0 -13 8 -11 17 1 9 -3
20 -9 24 -8 5 -9 3 -4 -7 7 -12 6 -12 -9 0 -22 18 -46 64 -46 88 0 18 149 175
162 171 4 -2 52 -57 107 -123z m2069 -93 c11 -10 3 -27 -51 -105 -110 -158
-131 -187 -137 -187 -3 0 -34 28 -68 63 l-63 63 108 132 107 132 45 -43 c25
-23 51 -48 59 -55z m-430 -81 c43 -47 77 -88 77 -92 0 -4 -47 -60 -105 -124
l-104 -118 -98 102 c-54 56 -98 105 -98 109 0 5 48 63 108 130 l107 122 18
-22 c10 -13 53 -61 95 -107z m-1901 43 c21 -31 47 -70 58 -87 11 -18 31 -45
45 -60 26 -30 32 -47 15 -46 -5 0 -9 7 -7 16 2 8 -1 12 -7 8 -6 -3 -11 0 -11
8 0 8 -7 17 -15 21 -8 3 -15 12 -15 19 0 8 -7 20 -15 27 -8 7 -13 16 -10 20 3
5 2 10 -3 12 -4 1 -21 23 -38 48 -41 62 -46 70 -41 70 3 0 22 -25 44 -56z
m1432 -51 c56 -59 100 -112 99 -119 -2 -7 -52 -66 -113 -133 l-109 -121 -79
77 c-43 43 -92 95 -108 115 l-30 37 79 84 c43 46 94 103 112 125 18 23 37 42
41 42 4 0 53 -48 108 -107z m-470 -40 c56 -59 100 -110 99 -114 -2 -3 -55 -61
-118 -127 l-116 -122 -113 114 -113 113 124 121 c67 67 126 122 130 122 3 0
52 -48 107 -107z m-560 61 c11 -14 54 -61 95 -105 42 -44 76 -84 76 -88 0 -9
-188 -193 -210 -206 -8 -4 -12 -5 -8 0 4 4 -1 15 -10 24 -11 10 -12 12 -2 6
10 -6 9 -2 -4 12 -10 13 -23 20 -29 16 -6 -3 -7 -1 -3 5 4 7 0 22 -8 34 -9 13
-16 17 -16 9 0 -8 -10 -2 -21 13 -12 15 -19 30 -16 33 9 8 -17 32 -27 25 -5
-3 -6 0 -2 6 4 7 2 20 -4 29 -11 17 -11 17 -6 -1 6 -16 4 -17 -9 -6 -8 7 -15
20 -15 29 -1 15 176 190 192 191 4 0 16 -12 27 -26z m1723 -248 c-30 -49 -186
-246 -194 -246 -6 0 -42 31 -81 69 l-70 68 109 120 108 121 68 -60 c41 -37 65
-65 60 -72z m-468 -5 l99 -100 -26 -33 c-14 -18 -66 -75 -114 -126 l-88 -93
-104 99 -105 99 114 126 c63 70 117 127 120 127 3 0 50 -45 104 -99z m-1501
52 c-4 -11 -3 -14 5 -9 12 7 49 -40 39 -50 -3 -3 -12 7 -21 23 -8 15 -15 23
-16 18 0 -6 7 -21 16 -33 9 -13 14 -25 11 -28 -2 -3 -16 14 -30 38 -18 30 -22
45 -14 50 17 11 17 10 10 -9z m1107 -240 c-18 -21 -71 -78 -118 -127 l-84 -89
-111 111 -110 110 119 126 119 126 109 -109 109 -109 -33 -39z m-555 -106
c-61 -63 -114 -115 -120 -116 -10 -1 -67 61 -139 154 -22 27 -46 56 -53 63 -7
7 -13 19 -13 25 0 7 46 58 102 114 l103 102 115 -114 114 -115 -109 -113z
m-472 258 c10 -14 14 -25 9 -25 -6 0 -13 7 -16 16 -4 9 -9 14 -13 10 -8 -8 27
-47 37 -41 16 10 42 -34 36 -60 -4 -15 -2 -25 4 -25 6 0 9 4 5 9 -10 17 12 21
26 5 10 -13 9 -18 -9 -35 -12 -10 -17 -14 -12 -7 14 17 13 35 -2 20 -9 -9 -18
-2 -40 28 -17 22 -26 45 -22 51 4 7 3 9 -3 6 -15 -9 -44 38 -37 57 8 22 16 20
37 -9z m1614 -157 l72 -71 -47 -61 c-25 -34 -70 -91 -99 -128 l-54 -68 -89 77
c-87 75 -98 88 -82 95 4 2 54 54 111 116 57 61 106 112 110 112 3 0 38 -32 78
-72z m-338 -165 c4 -3 -55 -71 -156 -182 l-68 -73 -103 93 c-56 51 -101 99
-100 105 2 7 53 66 113 132 l110 120 100 -96 c55 -54 101 -98 104 -99z m-1132
120 c-2 -12 1 -24 7 -26 8 -3 7 -8 -1 -18 -11 -11 -13 -10 -15 7 0 10 -1 25
-1 32 1 15 -19 11 -24 -4 -2 -6 8 -23 22 -38 14 -16 24 -33 22 -40 -2 -6 -20
14 -40 44 l-36 55 21 18 c26 22 52 5 45 -30z m566 -71 l107 -107 -118 -118
-117 -117 -110 110 -110 110 115 115 c63 63 117 115 120 115 3 0 54 -48 113
-108z m-443 -56 c0 -5 7 -14 15 -20 10 -7 12 -16 5 -26 -5 -8 -12 -11 -17 -7
-4 5 -1 13 7 18 12 9 12 10 -3 5 -11 -3 -16 -2 -12 4 3 6 1 10 -4 10 -17 0
-13 -13 14 -50 21 -28 23 -36 12 -47 -15 -15 -47 -7 -47 12 0 6 -9 20 -20 30
-11 10 -20 23 -20 28 0 6 -7 19 -17 29 -11 12 -17 38 -18 80 l-2 61 53 -59
c29 -32 53 -63 54 -68z m1121 -92 l89 -76 -32 -42 c-34 -43 -155 -194 -169
-210 -7 -8 -52 25 -179 132 l-34 29 113 122 c63 66 116 121 118 121 3 0 45
-34 94 -76z m-1065 35 c10 -17 -13 -36 -27 -22 -12 12 -4 33 11 33 5 0 12 -5
16 -11z m612 -107 l103 -97 -111 -118 c-62 -64 -115 -117 -118 -117 -4 0 -54
45 -112 100 l-105 99 115 115 c63 64 117 116 120 116 3 -1 51 -45 108 -98z
m-388 -111 c24 -19 24 -21 8 -37 -17 -17 -18 -17 -33 1 -16 20 -16 20 -6 -1 8
-18 4 -27 -29 -59 -43 -42 -44 -42 -55 -5 -7 23 -6 24 10 9 15 -15 19 -15 41
6 20 19 23 26 14 46 l-10 24 3 -26 c5 -32 -21 -52 -47 -37 -13 7 -21 7 -25 -1
-5 -7 -12 -2 -19 14 -7 15 -9 32 -5 38 11 18 3 80 -13 97 -9 9 -14 10 -14 3 0
-7 5 -15 10 -18 13 -8 13 -72 0 -80 -6 -4 -7 1 -3 11 4 11 2 15 -4 11 -6 -4
-8 3 -5 18 6 31 -15 60 -33 45 -20 -16 -46 30 -32 56 10 18 9 18 -8 4 -17 -14
-18 -14 -6 8 7 13 15 21 18 18 3 -3 15 6 25 20 l20 25 87 -85 c47 -46 97 -94
111 -105z m918 40 c-13 -16 -30 -32 -38 -36 -8 -3 1 10 19 29 42 44 51 46 19
7z m-1108 -17 c0 -8 -4 -12 -10 -9 -5 3 -10 13 -10 21 0 8 5 12 10 9 6 -3 10
-13 10 -21z m800 -108 l99 -84 -51 -59 c-62 -72 -168 -183 -175 -183 -4 0 -94
76 -166 141 l-39 35 108 116 c60 64 113 117 117 117 5 1 53 -37 107 -83z m240
36 c-12 -21 -35 -53 -51 -70 -16 -17 -29 -36 -29 -41 0 -6 -7 -11 -17 -11 -14
0 -14 3 3 22 10 13 29 33 41 44 12 12 19 25 16 28 -4 3 -1 6 5 6 6 0 18 14 27
30 9 17 18 30 21 30 3 0 -4 -17 -16 -38z m-702 -91 c115 -108 114 -95 15 -184
-34 -30 -61 -57 -60 -59 1 -1 -8 8 -20 22 -12 14 -20 31 -18 38 2 6 0 12 -5
12 -16 0 -12 -19 12 -50 12 -16 19 -32 16 -35 -6 -6 -68 79 -68 94 0 6 -3 11
-7 11 -5 0 -28 29 -52 65 l-43 65 53 59 c30 33 59 59 65 58 6 -1 56 -44 112
-96z m577 -69 c-6 -4 -11 -13 -13 -20 -5 -28 -35 -62 -51 -60 -9 2 -15 -3 -13
-11 2 -7 -5 -22 -14 -32 -9 -11 -13 -19 -9 -19 4 0 0 -9 -10 -20 -10 -11 -24
-20 -31 -20 -24 0 -21 25 7 53 15 15 40 42 54 60 15 17 24 26 20 20 -4 -9 -1
-11 9 -7 9 3 13 11 9 17 -4 6 -1 7 7 2 8 -5 11 -3 8 6 -6 15 21 53 31 44 3 -4
1 -9 -4 -13z m-355 -129 c55 -47 100 -89 100 -92 0 -9 -64 -71 -74 -71 -5 0
-19 9 -31 20 -17 16 -22 17 -22 6 0 -8 4 -13 9 -10 12 7 10 -10 -2 -22 -7 -7
-6 -11 4 -11 8 0 13 4 10 9 -3 4 -1 8 5 8 19 0 18 -15 -2 -35 -11 -11 -16 -14
-12 -6 6 10 4 12 -4 7 -7 -5 -10 -11 -7 -14 11 -11 -36 -51 -52 -45 -11 5 -14
2 -9 -9 3 -9 -2 -23 -14 -34 -10 -9 -20 -13 -20 -8 -1 5 -3 23 -5 39 l-3 30
20 -25 c10 -14 17 -18 14 -10 -3 8 0 22 5 30 9 13 11 13 21 0 9 -13 10 -13 6
2 -3 9 -1 19 6 21 7 2 0 4 -15 4 -15 0 -25 -3 -23 -7 3 -4 -1 -10 -9 -13 -8
-3 -17 0 -19 7 -3 8 -17 12 -32 11 -22 -3 -29 3 -40 28 -8 18 -14 28 -15 22 0
-5 -12 8 -26 29 -23 33 -25 41 -14 61 19 35 79 90 87 80 5 -4 3 -10 -4 -12
-20 -7 -65 -53 -52 -53 9 0 10 -3 2 -11 -8 -8 -7 -19 4 -40 8 -16 15 -29 16
-29 1 0 2 14 3 31 1 20 -2 26 -7 17 -7 -10 -9 -10 -9 3 0 8 5 20 12 27 7 7 8
12 3 12 -4 0 2 9 15 20 13 11 27 20 32 20 4 0 3 9 -4 20 -11 17 -8 24 17 50
16 16 30 30 32 30 2 0 48 -39 103 -87z m215 -65 c5 4 -2 -8 -14 -26 -22 -32
-24 -32 -42 -16 -14 13 -16 20 -8 30 12 14 29 10 29 -7 0 -6 -6 -7 -12 -3 -10
5 -10 3 0 -7 11 -12 14 -12 22 1 6 9 5 19 0 24 -6 6 -10 15 -10 21 0 5 7 2 14
-7 7 -10 17 -14 21 -10z m-72 -66 c16 -17 15 -21 -15 -60 -18 -23 -34 -39 -36
-37 -3 2 1 11 8 20 7 9 10 18 6 22 -10 10 -18 -4 -20 -34 -2 -37 -13 -53 -31
-46 -8 3 -15 0 -15 -6 0 -6 5 -11 11 -11 8 0 8 -5 -1 -15 -7 -8 -17 -12 -23
-8 -6 4 -8 0 -4 -10 4 -11 2 -14 -9 -10 -17 6 -19 23 -2 23 6 0 8 3 5 7 -4 3
1 15 10 26 17 19 17 20 0 14 -11 -4 -16 -3 -12 3 3 6 1 10 -5 10 -7 0 -9 -8
-5 -20 7 -22 -10 -28 -19 -7 -3 6 -3 -1 -1 -18 3 -16 -2 -39 -10 -52 -9 -13
-11 -23 -6 -23 5 0 13 9 16 20 6 20 25 19 25 -1 0 -6 -5 -7 -11 -4 -6 4 -9 1
-8 -6 4 -17 -22 -59 -35 -59 -5 0 -1 9 9 20 19 21 8 29 -12 9 -8 -8 -16 -3
-28 20 -16 33 -13 51 9 51 8 0 20 8 27 18 13 16 12 16 -6 3 -11 -8 6 12 37 44
54 56 79 67 63 28 -5 -12 -9 -14 -12 -5 -5 13 -23 7 -23 -9 0 -6 5 -7 10 -4 6
3 10 0 11 -7 0 -10 2 -10 6 1 4 11 7 11 13 0 5 -7 8 4 7 27 -1 27 6 50 22 72
26 37 32 39 54 14z m-279 -141 c-5 -6 -33 31 -33 44 -1 6 8 -1 19 -15 10 -14
17 -27 14 -29z"/>
<path d="M4291 9190 c-82 -58 -191 -151 -191 -163 0 -5 19 7 43 27 23 20 78
64 122 97 44 34 82 65 83 70 5 13 3 12 -57 -31z"/>
<path d="M3213 9088 c19 -24 49 -69 67 -101 18 -32 34 -56 37 -53 13 13 -106
196 -128 196 -6 0 5 -19 24 -42z"/>
<path d="M3947 8817 c-12 -31 -8 -50 24 -112 55 -108 312 -503 424 -653 155
-208 512 -622 537 -622 5 0 -35 48 -89 108 -334 366 -533 631 -777 1038 -73
121 -99 173 -104 210 -6 35 -10 44 -15 31z"/>
<path d="M3070 8814 c0 -9 82 -98 94 -103 14 -5 -20 47 -52 82 -24 26 -42 34
-42 21z"/>
<path d="M4263 8703 c26 -2 68 -2 95 0 26 2 4 3 -48 3 -52 0 -74 -1 -47 -3z"/>
<path d="M2753 8672 c6 -9 64 -8 74 1 3 4 -13 7 -36 7 -23 0 -40 -3 -38 -8z"/>
<path d="M3398 8615 c8 -79 6 -752 -3 -802 -3 -18 -2 -33 3 -33 25 0 28 826 4
880 -10 20 -10 11 -4 -45z"/>
<path d="M3102 8534 c-22 -44 -94 -153 -159 -244 -66 -91 -228 -315 -361 -498
-133 -184 -242 -336 -242 -338 0 -19 103 119 573 770 150 208 248 368 234 383
-3 3 -24 -30 -45 -73z"/>
<path d="M3350 7311 c0 -6 8 -11 18 -11 9 0 32 -9 51 -21 42 -26 64 -20 25 8
-35 25 -94 40 -94 24z"/>
<path d="M3703 7289 c-54 -42 -45 -58 10 -18 24 17 49 28 60 25 11 -3 17 0 14
7 -7 23 -43 17 -84 -14z"/>
<path d="M2820 6601 c0 -21 350 -88 569 -110 210 -22 353 -12 661 44 250 46
290 55 290 66 0 6 -4 8 -9 5 -5 -4 -62 -11 -128 -16 -96 -8 -143 -7 -255 7
-120 15 -147 15 -210 4 -124 -23 -211 -25 -310 -6 -75 15 -112 16 -217 9 -151
-10 -314 -11 -358 -1 -18 3 -33 2 -33 -2z m628 -22 c109 -22 99 -23 305 11 54
9 88 9 175 -4 59 -9 125 -16 147 -17 100 -3 -233 -62 -415 -74 -122 -8 -301 7
-498 42 -170 30 -171 34 -12 51 139 15 190 13 298 -9z"/>
<path d="M3186 6281 c29 -31 363 -66 533 -57 131 8 279 31 296 47 12 12 3 12
-85 -6 -41 -9 -149 -18 -240 -21 -138 -5 -191 -3 -320 15 -85 12 -164 24 -175
28 -15 4 -17 2 -9 -6z"/>
<path d="M5038 9403 c17 -2 47 -2 65 0 17 2 3 4 -33 4 -36 0 -50 -2 -32 -4z"/>
<path d="M4898 9393 c12 -2 32 -2 45 0 12 2 2 4 -23 4 -25 0 -35 -2 -22 -4z"/>
<path d="M2268 9333 c17 -2 47 -2 65 0 17 2 3 4 -33 4 -36 0 -50 -2 -32 -4z"/>
<path d="M4580 4214 c-152 -400 -303 -792 -337 -873 -39 -94 -47 -131 -24
-105 11 12 308 779 362 936 21 59 19 97 -1 42z"/>
<path d="M2440 3900 c0 -8 7 -55 15 -105 19 -115 19 -159 -1 -196 -8 -17 -13
-36 -11 -42 6 -20 47 70 47 104 0 50 -31 233 -41 244 -6 5 -9 4 -9 -5z"/>
<path d="M1710 4287 c-98 -77 -38 -228 81 -202 59 13 90 110 52 165 -26 38
-45 49 -83 49 -19 0 -42 -5 -50 -12z m108 -29 c81 -88 -25 -212 -115 -134 -37
32 -39 93 -4 130 32 34 89 36 119 4z"/>
<path d="M2736 1827 c3 -10 9 -15 12 -12 3 3 0 11 -7 18 -10 9 -11 8 -5 -6z"/>
<path d="M2974 1408 c3 -13 5 -25 5 -27 1 -3 6 0 12 6 9 9 8 16 -5 28 -15 15
-16 15 -12 -7z"/>
<path d="M3058 1296 c-10 -7 -15 -16 -12 -19 4 -3 13 1 21 9 20 19 13 26 -9
10z"/>
<path d="M3130 1231 c0 -6 0 -13 0 -16 0 -3 3 -6 8 -7 4 0 12 -8 19 -17 7 -9
13 -12 13 -8 0 5 -9 20 -20 34 -11 14 -20 21 -20 14z"/>
<path d="M3130 1172 c0 -12 5 -22 10 -22 6 0 10 -7 10 -15 0 -8 5 -15 11 -15
5 0 7 -5 3 -12 -4 -7 -3 -8 4 -4 8 5 5 18 -9 44 -27 48 -29 49 -29 24z"/>
<path d="M3177 1150 c3 -11 7 -20 9 -20 2 0 4 9 4 20 0 11 -4 20 -9 20 -5 0
-7 -9 -4 -20z"/>
<path d="M3180 1090 c-9 -6 -10 -10 -3 -10 6 0 15 5 18 10 8 12 4 12 -15 0z"/>
<path d="M3207 1056 c-3 -8 -2 -18 4 -22 16 -9 22 2 11 21 -8 15 -10 16 -15 1z"/>
<path d="M3285 1026 c-10 -15 -15 -29 -11 -33 3 -3 6 0 6 8 0 12 2 11 11 -1 8
-12 9 -10 4 8 -7 25 9 31 19 7 9 -25 -15 -55 -35 -44 -24 12 -33 -5 -12 -22
14 -12 16 -12 8 0 -6 11 -4 13 8 8 9 -3 23 0 31 8 13 13 17 12 35 -11 11 -14
17 -33 14 -42 -4 -14 -3 -14 5 -3 7 10 7 21 0 34 -15 29 -3 31 16 1 16 -23 16
-27 2 -43 -15 -16 -14 -17 6 -15 13 1 25 3 28 3 3 1 -2 6 -10 11 -11 7 -12 10
-2 10 13 0 -14 46 -47 80 -13 13 -14 13 -8 -3 5 -13 3 -17 -5 -15 -7 3 -13 11
-13 19 0 8 -3 16 -6 19 -3 3 -10 14 -16 24 -10 18 -11 18 -28 -8z"/>
<path d="M3486 769 c-10 -10 -15 -23 -10 -30 5 -9 2 -10 -9 -6 -11 4 -21 -1
-28 -14 -10 -19 -9 -20 12 -9 17 10 24 9 31 -1 8 -11 9 -10 4 4 -6 19 4 23 21
6 19 -19 27 10 8 31 -12 13 -13 19 -4 22 7 2 9 7 4 10 -6 3 -18 -3 -29 -13z
m24 -29 c6 -11 9 -20 7 -20 -2 0 -12 9 -22 20 -10 11 -13 20 -7 20 6 0 16 -9
22 -20z"/>
<path d="M3530 700 c0 -5 5 -10 10 -10 6 0 10 5 10 10 0 6 -4 10 -10 10 -5 0
-10 -4 -10 -10z"/>
<path d="M3565 690 c3 -5 8 -10 11 -10 2 0 4 5 4 10 0 6 -5 10 -11 10 -5 0 -7
-4 -4 -10z"/>
<path d="M3467 667 c3 -12 14 -34 25 -47 13 -16 18 -19 14 -7 -3 9 -2 17 2 17
9 0 8 47 -1 57 -4 3 -7 -8 -7 -26 0 -19 -4 -30 -10 -26 -5 3 -10 15 -10 25 0
10 -4 21 -9 24 -4 3 -6 -5 -4 -17z"/>
<path d="M3552 655 c15 -8 35 -16 46 -18 11 -1 32 -16 46 -32 15 -17 24 -23
20 -15 -14 29 -47 59 -57 53 -6 -4 -8 0 -4 11 5 14 3 15 -13 6 -12 -7 -21 -7
-25 0 -3 5 -14 10 -23 10 -12 -1 -9 -5 10 -15z"/>
<path d="M3600 602 c0 -5 7 -15 15 -22 8 -7 15 -8 15 -2 0 5 -7 15 -15 22 -8
7 -15 8 -15 2z"/>
<path d="M3600 563 c0 -6 5 -15 10 -18 6 -3 10 -11 10 -16 0 -6 -5 -7 -12 -3
-7 5 -8 3 -4 -5 6 -9 13 -8 27 5 21 19 25 34 8 34 -5 0 -7 -4 -4 -10 3 -5 2
-10 -4 -10 -5 0 -15 8 -20 18 -6 9 -11 12 -11 5z"/>
<path d="M4097 513 c5 -12 3 -14 -7 -8 -9 5 -11 4 -6 -4 6 -9 11 -9 22 0 17
14 17 16 0 22 -11 4 -13 1 -9 -10z"/>
<path d="M3759 483 c6 -12 8 -28 5 -36 -5 -15 20 -47 38 -47 6 0 1 9 -12 20
-13 11 -20 23 -17 27 4 3 18 -4 32 -17 39 -37 29 -17 -16 31 -23 24 -36 34
-30 22z"/>
<path d="M3620 446 c0 -11 30 -66 36 -66 2 0 -3 15 -12 33 -19 36 -24 44 -24
33z"/>
<path d="M3994 403 c4 -7 2 -13 -4 -13 -6 0 -20 -9 -32 -20 -12 -11 -17 -20
-11 -20 6 0 16 7 23 15 7 8 17 15 22 15 6 0 5 -7 -2 -15 -7 -8 -8 -15 -4 -15
5 0 15 9 21 19 10 16 9 22 -4 33 -12 9 -15 9 -9 1z"/>
<path d="M3895 240 c3 -5 8 -10 11 -10 2 0 4 5 4 10 0 6 -5 10 -11 10 -5 0 -7
-4 -4 -10z"/>
<path d="M3821 203 c-9 -16 -12 -16 -21 -3 -14 21 -12 -1 3 -27 12 -22 13 -21
23 12 12 39 10 44 -5 18z"/>
</g>
</svg>
