<?xml version="1.0" standalone="no"?>
<!DOCTYPE svg PUBLIC "-//W3C//DTD SVG 20010904//EN"
 "http://www.w3.org/TR/2001/REC-SVG-20010904/DTD/svg10.dtd">
<svg version="1.0" xmlns="http://www.w3.org/2000/svg"
 width="735.000000pt" height="842.000000pt" viewBox="0 0 735.000000 842.000000"
 preserveAspectRatio="xMidYMid meet">

<g transform="translate(0.000000,842.000000) scale(0.100000,-0.100000)"
fill="#000000" stroke="none">
<path d="M5620 8405 c-7 -8 -9 -15 -5 -15 4 0 -4 -9 -19 -21 -32 -25 -36 -73
-6 -89 24 -13 487 -13 495 0 4 6 14 4 25 -3 16 -9 24 -9 39 0 10 7 22 9 26 5
3 -4 51 -7 105 -8 101 -2 131 8 115 38 -4 7 3 1 15 -14 28 -36 37 -35 54 7 19
44 28 45 24 3 l-3 -33 205 -2 c118 0 210 3 217 8 6 6 14 6 16 2 3 -5 93 -9
199 -8 l193 0 -3 40 c-2 22 -8 45 -14 52 -11 14 -253 15 -280 1 -10 -5 -18
-15 -18 -23 0 -18 -36 -39 -45 -26 -3 5 -1 12 5 16 14 9 12 26 -5 49 -13 17
-18 18 -37 8 -34 -18 -156 -22 -162 -5 -8 20 -37 15 -43 -7 -4 -15 -9 -18 -18
-10 -7 6 -45 9 -88 7 -70 -4 -76 -2 -79 16 -4 28 -28 34 -35 8 -6 -22 -14 -24
-95 -21 -26 1 -56 -4 -67 -10 -19 -10 -21 -8 -21 20 0 22 -5 30 -17 30 -25 0
-47 -16 -39 -28 3 -5 -5 -17 -19 -26 -14 -9 -25 -23 -25 -31 0 -8 -7 -15 -15
-15 -10 0 -15 10 -15 34 0 63 -70 83 -92 27 -5 -14 -8 -38 -6 -53 3 -15 0 -24
-5 -21 -5 3 -7 26 -5 52 3 40 0 46 -17 49 -11 1 -27 -2 -35 -8 -12 -8 -13 -13
-2 -30 15 -24 16 -56 2 -65 -6 -4 -10 6 -10 23 0 16 -6 34 -12 40 -8 6 -67 9
-146 9 -116 -2 -132 0 -132 14 0 21 -24 31 -39 16 -8 -8 -11 -8 -11 1 0 17
-35 15 -50 -3z m40 -60 c0 -59 -16 -76 -21 -22 -5 43 0 77 12 77 5 0 9 -25 9
-55z m50 51 c0 -3 -4 -8 -10 -11 -5 -3 -10 -1 -10 4 0 6 5 11 10 11 6 0 10 -2
10 -4z m350 -51 c0 -30 -3 -55 -7 -55 -5 0 -7 24 -6 52 2 62 2 58 8 58 3 0 5
-25 5 -55z m110 0 c0 -12 -6 -29 -12 -38 -11 -15 -13 -9 -13 38 0 47 2 53 13
38 6 -9 12 -26 12 -38z m129 0 c0 -59 -14 -76 -20 -22 -5 41 0 77 11 77 4 0 8
-25 9 -55z m-184 -4 c0 -27 -3 -47 -7 -44 -14 8 -8 94 6 93 1 0 1 -22 1 -49z
m639 17 c7 -5 7 -8 -3 -8 -9 0 -12 -9 -9 -30 3 -16 1 -30 -3 -30 -9 0 -17 59
-11 84 4 15 7 17 10 6 3 -8 10 -18 16 -22z m189 -22 c1 -25 -1 -46 -4 -46 -9
0 -19 69 -12 86 9 23 14 10 16 -40z m-803 7 c0 -24 -3 -33 -9 -25 -7 12 -4 62
5 62 2 0 4 -17 4 -37z m-195 -23 c0 -17 -3 -30 -7 -30 -4 0 -8 14 -8 30 0 17
-5 30 -11 30 -5 0 -7 5 -3 11 10 17 28 -7 29 -41z m755 -7 c0 -13 -4 -23 -10
-23 -5 0 -10 14 -10 30 0 17 -5 30 -11 30 -5 0 -7 5 -3 12 10 15 34 -19 34
-49z m130 11 c0 -19 -4 -34 -9 -34 -5 0 -8 12 -7 28 2 15 -1 33 -7 40 -7 9 -6
11 7 6 10 -4 16 -18 16 -40z m462 0 c2 -19 0 -34 -4 -34 -4 0 -8 14 -8 30 0
17 -4 30 -10 30 -5 0 -10 4 -10 10 0 5 6 7 14 4 8 -3 16 -21 18 -40z m-1584 1
c-1 -19 -5 -35 -10 -35 -4 0 -8 16 -8 35 0 19 4 35 10 35 5 0 9 -16 8 -35z
m44 0 c-2 -19 -7 -35 -11 -35 -3 0 -6 16 -6 35 0 19 5 35 10 35 7 0 9 -15 7
-35z m48 0 c0 -19 -4 -35 -9 -35 -5 0 -7 9 -4 20 3 11 0 27 -7 35 -10 12 -9
15 4 15 12 0 16 -9 16 -35z m48 -3 c2 -17 -1 -32 -6 -32 -5 0 -8 11 -7 25 2
15 -4 29 -13 35 -15 9 -15 10 3 8 14 -2 21 -12 23 -36z m52 3 c0 -19 -4 -35
-10 -35 -5 0 -10 16 -10 35 0 19 5 35 10 35 6 0 10 -16 10 -35z m92 0 c2 -19
0 -35 -4 -35 -4 0 -8 13 -8 29 0 16 -6 32 -12 34 -8 4 -7 6 3 6 12 1 18 -9 21
-34z m361 -28 c8 -5 5 -7 -8 -5 -22 4 -31 30 -19 56 6 13 9 10 12 -13 2 -16 9
-34 15 -38z m35 45 c6 -18 -15 -14 -22 4 -4 10 -1 14 6 12 6 -2 14 -10 16 -16z
m41 -14 c15 -43 8 -45 -12 -3 -9 19 -13 35 -8 35 5 0 14 -14 20 -32z m91 -3
c0 -19 -4 -35 -10 -35 -5 0 -10 16 -10 35 0 19 5 35 10 35 6 0 10 -16 10 -35z
m80 0 c0 -19 -5 -35 -11 -35 -6 0 -9 6 -6 13 2 6 0 22 -4 35 -6 16 -5 22 6 22
10 0 15 -11 15 -35z m46 0 c-1 -45 -13 -45 -18 0 -2 22 0 35 7 35 7 0 11 -15
11 -35z m234 0 c0 -19 -4 -35 -10 -35 -5 0 -10 16 -10 35 0 19 5 35 10 35 6 0
10 -16 10 -35z m222 9 c-3 -16 1 -30 9 -36 12 -8 12 -9 0 -6 -25 7 -36 34 -22
52 18 21 19 20 13 -10z m56 -7 c2 -15 -1 -27 -7 -27 -6 0 -8 7 -5 15 4 8 0 23
-7 32 -12 14 -12 16 1 11 8 -2 16 -17 18 -31z m38 -2 c-1 -45 -13 -45 -18 0
-3 22 0 35 8 35 7 0 11 -14 10 -35z m48 -3 c1 -17 -2 -32 -6 -32 -5 0 -8 13
-8 29 0 16 -6 32 -12 35 -7 3 -4 5 6 3 14 -1 19 -10 20 -35z m-1630 -24 c7 -5
5 -8 -6 -8 -19 0 -33 34 -21 52 5 9 9 5 11 -12 2 -14 9 -28 16 -32z m640 0 c7
-5 5 -8 -6 -8 -19 0 -33 34 -21 52 5 9 9 5 11 -12 2 -14 9 -28 16 -32z m790 0
c7 -5 5 -8 -7 -8 -21 0 -32 24 -21 48 6 14 8 13 12 -8 2 -14 9 -28 16 -32z
m-1414 27 c0 -8 -4 -15 -10 -15 -5 0 -10 7 -10 15 0 8 5 15 10 15 6 0 10 -7
10 -15z m640 5 c0 -5 -4 -10 -10 -10 -5 0 -10 5 -10 10 0 6 5 10 10 10 6 0 10
-4 10 -10z m397 -12 c-3 -8 -6 -5 -6 6 -1 11 2 17 5 13 3 -3 4 -12 1 -19z
m401 4 c2 -7 -3 -12 -12 -12 -9 0 -16 7 -16 16 0 17 22 14 28 -4z m62 2 c0 -8
-4 -12 -10 -9 -5 3 -10 10 -10 16 0 5 5 9 10 9 6 0 10 -7 10 -16z m-573 -8
c-3 -8 -1 -17 6 -20 7 -2 4 -5 -5 -5 -18 -1 -24 19 -11 32 11 11 15 8 10 -7z
m231 -25 c-15 -5 -21 7 -13 26 7 17 8 17 15 -2 4 -11 3 -22 -2 -24z m122 23
c0 -8 -4 -12 -10 -9 -5 3 -10 10 -10 16 0 5 5 9 10 9 6 0 10 -7 10 -16z"/>
<path d="M3845 8403 c-434 -19 -841 -167 -1155 -420 -98 -79 -243 -224 -321
-321 -207 -256 -327 -525 -388 -865 -60 -334 -66 -405 -66 -767 1 -184 6 -393
13 -465 17 -182 51 -480 76 -672 20 -145 20 -190 2 -150 -3 6 -4 3 -1 -9 6
-24 -51 -104 -75 -104 -26 0 -103 54 -144 101 -52 60 -80 115 -87 169 -6 50
-11 42 -29 -42 -12 -52 -11 -60 9 -102 11 -25 21 -57 21 -71 0 -13 7 -45 16
-71 9 -27 16 -85 17 -138 2 -76 -2 -98 -20 -137 -13 -25 -23 -58 -23 -73 0
-17 -10 -35 -27 -50 l-27 -23 33 -5 c17 -3 34 -1 37 3 2 5 13 1 24 -8 14 -12
16 -21 9 -34 -5 -10 -9 -28 -9 -42 0 -23 -56 -99 -136 -184 -29 -31 -46 -41
-61 -37 -12 4 -38 -6 -68 -25 -27 -17 -54 -31 -61 -31 -7 0 -22 20 -34 45 -17
34 -20 54 -15 85 7 42 -3 52 -25 25 -19 -23 -33 -18 -74 24 l-38 39 4 125 c3
108 6 128 23 148 l20 22 -25 -6 c-14 -4 -29 -7 -34 -7 -4 0 -5 -24 -2 -54 8
-58 -11 -125 -36 -127 -7 -1 -22 -2 -33 -3 -17 -1 -21 -9 -23 -48 -2 -33 -8
-48 -17 -48 -8 0 -16 4 -19 9 -3 5 -25 12 -48 15 -24 4 -67 18 -97 31 -29 14
-59 25 -66 25 -8 0 -16 8 -19 18 -9 26 -65 65 -98 67 -42 3 -33 -12 12 -20 43
-7 75 -40 100 -103 7 -18 22 -39 34 -47 11 -8 16 -15 11 -15 -4 0 2 -11 15
-25 13 -14 34 -25 47 -25 19 0 23 -5 23 -30 0 -22 7 -33 28 -44 24 -13 30 -12
49 4 l22 18 -40 37 c-22 20 -38 42 -36 48 2 6 18 15 35 19 26 7 41 3 87 -23
67 -38 155 -120 155 -146 0 -32 69 -162 95 -179 29 -19 82 -31 165 -40 88 -9
117 -22 176 -81 l56 -55 -20 -20 -20 -21 -104 52 c-142 71 -240 94 -380 89
l-109 -3 -47 43 c-25 24 -60 50 -77 58 -55 27 -87 46 -82 50 2 2 45 1 95 -2
65 -5 92 -11 92 -20 0 -17 15 -25 34 -18 10 4 16 18 16 40 0 27 -6 36 -29 48
-26 14 -30 14 -35 1 -3 -8 -17 -20 -31 -27 -20 -9 -31 -8 -57 5 -18 9 -45 18
-59 21 -14 3 -55 29 -92 58 -56 44 -67 57 -62 76 7 27 -12 29 -57 6 -29 -15
-38 -15 -125 2 l-94 17 -44 60 c-48 63 -56 99 -27 117 12 8 13 13 5 16 -17 7
-17 71 0 77 9 4 9 7 0 18 -7 7 -13 35 -13 63 0 47 -11 57 -17 16 -6 -42 -45
-145 -64 -168 -10 -14 -19 -33 -19 -43 0 -11 -7 -19 -15 -19 -9 0 -21 -11 -27
-25 -19 -42 -28 -28 -28 45 0 39 -3 70 -7 70 -4 0 -19 -12 -34 -26 -32 -30
-59 -26 -59 8 1 30 33 94 47 91 6 -1 8 9 5 22 -2 14 -5 25 -7 25 -1 0 -25 -33
-53 -74 -39 -56 -48 -76 -39 -85 7 -7 12 -43 11 -92 0 -75 -2 -81 -31 -111
-36 -36 -53 -30 -53 17 0 19 -5 37 -10 40 -6 4 -10 -8 -10 -28 0 -19 -7 -40
-15 -47 -8 -7 -15 -21 -15 -31 0 -11 -4 -19 -10 -19 -5 0 -9 -10 -9 -22 1 -17
2 -19 6 -5 5 19 23 23 23 5 0 -7 -7 -26 -15 -42 -13 -25 -15 -193 -15 -1316
l0 -1287 38 -69 c44 -81 99 -194 154 -319 91 -205 252 -587 295 -702 l47 -123
3408 0 3408 0 0 498 c0 457 -2 505 -19 587 -15 67 -17 91 -8 97 6 4 15 2 19
-5 4 -7 8 41 8 106 0 64 -4 117 -9 117 -20 0 -53 -74 -47 -104 4 -19 3 -27 -3
-21 -5 6 -15 46 -21 90 -7 44 -25 129 -41 190 -15 60 -27 111 -26 112 5 4 77
-66 77 -75 0 -5 9 -17 20 -27 11 -10 20 -24 20 -30 0 -7 7 -18 15 -25 13 -11
15 -4 15 57 0 58 -4 74 -22 95 -13 15 -32 28 -43 30 -23 4 -72 88 -77 133 -3
27 2 32 70 69 l72 39 0 149 c0 81 -2 148 -6 148 -10 0 -89 -45 -92 -52 -2 -5
-10 -8 -18 -8 -8 0 -14 -6 -14 -13 0 -18 -43 -37 -83 -37 -35 -1 -82 -11 -140
-33 -49 -18 -84 -11 -104 20 -18 28 -11 42 13 23 13 -11 17 -11 24 -1 6 11 8
11 12 0 3 -9 20 -14 49 -14 44 0 65 16 98 74 5 7 26 17 47 20 27 4 42 13 49
29 6 13 19 22 31 22 12 0 25 7 28 15 3 9 12 15 19 13 8 -2 30 15 50 36 l37 39
0 131 c0 89 -4 136 -12 144 -9 9 -9 12 0 12 9 0 12 31 12 109 0 95 -2 110 -17
113 -15 3 -15 4 1 21 16 16 16 17 1 17 -9 0 -36 -20 -59 -45 -24 -25 -50 -45
-59 -45 -10 0 -17 -4 -17 -9 0 -13 -57 -34 -75 -27 -8 3 -15 14 -15 25 0 12
-7 38 -16 60 -13 33 -21 40 -52 45 -29 4 -51 20 -97 68 -82 86 -105 117 -98
134 3 8 -1 14 -8 14 -12 0 -12 2 0 9 11 7 8 13 -14 27 -44 29 -57 72 -41 131
25 86 27 113 11 113 -24 0 -17 18 15 37 84 49 17 117 -72 72 -21 -11 -40 -19
-43 -19 -9 0 -6 74 6 131 27 134 54 511 39 539 -6 10 -10 29 -11 42 0 23 0 23
-10 -2 -6 -14 -7 -45 -4 -70 5 -40 3 -48 -19 -69 -14 -14 -27 -23 -29 -20 -36
50 -35 123 3 182 32 50 45 58 54 30 3 -10 3 4 1 30 -6 60 -12 72 -30 57 -19
-16 -40 -3 -25 15 7 8 10 22 7 32 -4 16 -6 16 -12 -3 -4 -12 -18 -27 -31 -33
-14 -6 -27 -18 -30 -26 -4 -8 -17 -15 -30 -15 -15 0 -38 -16 -66 -46 -45 -48
-85 -74 -116 -74 -11 0 -25 -7 -33 -16 -7 -8 -35 -27 -63 -41 -46 -23 -58 -25
-131 -20 l-80 6 25 -19 c24 -18 24 -19 5 -25 -11 -4 -34 -13 -52 -21 -17 -8
-47 -14 -65 -14 -39 0 -74 -30 -65 -54 4 -9 2 -18 -4 -22 -6 -4 -6 -11 2 -20
7 -8 13 -29 14 -45 2 -17 9 -43 16 -58 36 -73 94 -169 116 -193 31 -32 25 -44
-30 -58 -23 -7 -59 -23 -81 -37 -24 -16 -58 -27 -95 -30 -41 -4 -61 -12 -76
-29 -20 -23 -167 -82 -260 -105 -27 -6 -56 -16 -62 -22 -19 -14 -17 9 11 137
14 61 39 181 56 266 17 85 42 205 55 265 112 533 215 1125 252 1460 28 247 25
827 -5 1065 -45 356 -80 499 -187 771 -108 275 -213 440 -394 619 -195 195
-357 279 -697 364 -233 59 -503 89 -719 79z m697 -1229 c65 -7 66 -8 72 -38 8
-49 39 -446 35 -450 -2 -2 -88 -1 -190 1 l-185 6 -17 28 c-32 56 -123 89 -204
74 -34 -6 -94 -53 -104 -82 -2 -6 -33 -15 -68 -19 l-64 -7 7 29 c20 85 114
160 211 170 54 5 66 3 118 -25 l57 -30 61 90 c57 85 59 91 42 104 -23 17 -25
15 -73 -56 -23 -32 -43 -59 -46 -59 -3 0 -19 7 -36 16 -41 21 -143 21 -208 -1
-66 -22 -141 -91 -191 -176 -27 -44 -49 -71 -63 -73 -11 -3 -68 -12 -126 -21
-58 -9 -154 -26 -215 -37 -182 -34 -167 -36 -160 20 22 161 81 459 95 475 10
11 363 45 600 57 118 6 240 12 270 14 68 5 293 -1 382 -10z m-278 -240 c-26
-38 -50 -73 -54 -77 -4 -4 -23 1 -43 13 -84 50 -215 32 -283 -38 -41 -42 -74
-101 -74 -132 0 -12 -4 -19 -9 -16 -5 3 -7 15 -4 26 3 11 1 20 -5 20 -16 0
-53 -51 -45 -63 3 -6 1 -7 -6 -3 -18 12 36 101 104 172 50 52 70 65 119 79 71
21 170 16 209 -9 26 -17 26 -17 56 26 17 24 38 54 47 66 10 15 20 20 26 14 6
-6 -8 -35 -38 -78z m-97 -160 c28 -5 83 -52 83 -70 0 -22 -19 -17 -57 16 -31
28 -56 35 -108 31 -33 -3 -73 -22 -79 -37 -7 -18 -36 -18 -36 -1 0 21 46 59
82 67 31 7 60 5 115 -6z m1 -50 c12 -8 22 -18 22 -22 0 -4 -38 -6 -85 -4 -87
4 -102 11 -62 30 33 16 99 14 125 -4z m509 -6 c-3 -8 -6 -5 -6 6 -1 11 2 17 5
13 3 -3 4 -12 1 -19z m-744 -45 c-7 -2 -21 -2 -30 0 -10 3 -4 5 12 5 17 0 24
-2 18 -5z m220 0 c-7 -2 -19 -2 -25 0 -7 3 -2 5 12 5 14 0 19 -2 13 -5z m121
-1 c3 -5 -1 -9 -9 -9 -8 0 -12 4 -9 9 3 4 7 8 9 8 2 0 6 -4 9 -8z m113 -8 c-3
-3 -12 -4 -19 -1 -8 3 -5 6 6 6 11 1 17 -2 13 -5z m526 -226 c9 -128 20 -280
23 -338 l7 -106 -77 10 c-70 9 -77 12 -72 31 22 92 86 538 86 601 0 18 4 34 8
34 4 0 16 -105 25 -232z m-320 192 c36 -5 -6 -8 -135 -9 l-188 -1 0 -27 c-1
-39 -32 -103 -66 -135 -62 -58 -86 -62 -367 -66 l-258 -4 16 38 c8 20 30 66
49 101 25 46 31 66 22 69 -12 5 -102 -8 -380 -51 -55 -8 -101 -13 -104 -10 -7
6 23 12 268 49 205 31 347 51 440 60 60 5 647 -6 703 -14z m-1096 -16 c-3 -3
-12 -4 -19 -1 -8 3 -5 6 6 6 11 1 17 -2 13 -5z m-64 -11 c-7 -2 -21 -2 -30 0
-10 3 -4 5 12 5 17 0 24 -2 18 -5z m1217 -87 c0 -51 3 -180 7 -287 l6 -194
-449 0 c-373 -1 -495 -4 -719 -23 -148 -12 -288 -24 -309 -27 l-39 -6 7 163
c9 185 22 357 29 364 8 8 323 63 403 70 l74 7 -44 -84 c-70 -133 -92 -120 204
-119 206 0 264 3 304 17 64 21 131 86 146 145 7 23 14 48 16 55 2 9 51 12 184
12 l180 0 0 -93z m-1333 68 c-3 -3 -12 -4 -19 -1 -8 3 -5 6 6 6 11 1 17 -2 13
-5z m-333 -581 c5 -36 3 -43 -10 -43 -13 0 -15 6 -10 31 3 17 6 38 6 47 0 27
7 9 14 -35z m1573 11 c51 -3 96 -11 100 -17 4 -7 -24 -8 -93 -4 -244 16 -488
19 -724 8 -224 -11 -574 -40 -667 -57 -39 -7 -45 11 -7 20 54 14 469 48 664
55 214 7 569 5 727 -5z m337 -30 c25 -4 46 -11 46 -15 0 -10 -97 -1 -140 12
-22 6 -21 7 11 8 20 1 57 -2 83 -5z m-1907 -50 c-3 -3 -12 -4 -19 -1 -8 3 -5
6 6 6 11 1 17 -2 13 -5z m1523 -133 l135 -6 0 -33 c0 -32 -1 -33 -89 -63 -139
-46 -313 -145 -292 -166 3 -3 39 8 79 25 40 17 123 44 185 60 l111 30 -5 -51
c-12 -130 -14 -135 -39 -141 -42 -11 -181 -78 -169 -82 6 -3 51 13 100 35 72
33 90 37 92 25 9 -38 -9 -63 -66 -95 -65 -36 -104 -68 -97 -80 5 -6 58 4 123
25 23 8 23 7 16 -40 -5 -34 -4 -45 5 -40 6 4 11 13 11 21 0 7 8 27 17 43 21
36 52 42 215 42 l109 0 -6 -107 c-10 -174 -80 -671 -101 -728 -4 -8 -1 -15 4
-15 24 0 157 458 197 680 25 137 23 132 48 124 12 -3 23 -8 25 -9 2 -2 3 -103
2 -226 -1 -195 -8 -424 -36 -1104 l-7 -160 -54 -76 c-81 -114 -331 -352 -609
-581 -120 -98 -244 -188 -260 -188 -3 0 13 24 38 53 69 82 98 124 118 171 23
50 66 233 110 466 25 132 36 169 53 184 22 19 22 19 -33 12 -58 -7 -407 -21
-817 -32 -261 -8 -253 -6 -232 -61 6 -17 12 -127 14 -273 2 -168 7 -266 17
-312 8 -38 13 -68 10 -68 -19 0 -331 270 -418 362 -85 90 -107 121 -219 313
l-88 149 7 315 c3 174 9 380 12 459 l7 144 43 -139 c91 -293 223 -663 247
-698 12 -15 16 -10 42 46 130 294 310 624 503 920 100 155 113 196 88 274 -9
30 -21 55 -27 55 -13 0 -11 -21 6 -50 18 -31 19 -90 3 -127 -7 -15 -44 -77
-84 -138 -130 -199 -264 -436 -391 -693 -69 -139 -127 -251 -129 -249 -2 1
-14 57 -28 122 -48 230 -86 637 -86 921 l0 182 43 6 c23 3 73 6 111 7 80 3 69
15 111 -126 42 -141 116 -335 125 -330 5 3 3 24 -5 46 -13 35 -72 275 -90 368
l-7 34 68 -6 c38 -4 90 -9 117 -13 28 -4 47 -3 47 3 0 9 -97 58 -165 83 -79
29 -83 32 -93 82 l-9 48 31 0 c26 0 139 -35 209 -65 10 -4 17 -3 17 3 0 13
-140 67 -195 76 -22 4 -45 10 -51 14 -14 9 -26 80 -15 87 5 2 64 -2 132 -10
157 -18 207 -21 214 -13 8 8 -113 44 -250 75 -60 14 -111 26 -112 27 -8 7 -6
117 2 125 14 13 264 41 450 50 194 10 720 11 905 2z m389 -22 l26 -1 -27 -8
c-14 -4 -59 -11 -98 -15 l-72 -7 12 22 c11 21 17 22 73 16 33 -3 72 -6 86 -7z
m-1860 -86 c19 -67 15 -71 -71 -57 -30 5 -38 11 -38 28 0 29 11 43 40 55 46
18 58 13 69 -26z m1921 -87 l0 -93 -107 -6 c-60 -4 -123 -9 -142 -13 l-34 -7
7 49 c16 111 22 121 74 133 44 11 146 27 185 30 15 1 17 -10 17 -93z m-1886
-63 c3 -10 8 -34 11 -54 l7 -36 -69 -6 c-37 -3 -76 -9 -85 -12 -16 -6 -18 0
-18 59 l0 66 74 0 c62 0 75 -3 80 -17z m1884 -90 l-3 -46 -85 -2 c-47 -1 -111
-5 -142 -10 -58 -7 -58 -7 -58 19 0 41 31 64 97 71 32 4 63 8 68 10 6 2 36 4
68 4 l58 1 -3 -47z m162 -39 c0 -24 -5 -34 -15 -34 -17 0 -18 4 -9 49 8 40 24
30 24 -15z m-2011 -18 c6 -25 11 -47 11 -50 0 -3 -45 -6 -100 -6 l-100 0 0 34
c0 39 8 43 95 56 85 13 82 14 94 -34z m3444 -1253 c7 -58 -22 -165 -56 -207
-23 -28 -24 -28 -95 -21 -51 5 -83 14 -107 31 -53 35 -92 54 -113 54 -11 0
-22 7 -26 15 -3 8 -2 14 2 13 16 -4 90 23 102 36 19 24 69 30 89 12 21 -19 67
-21 74 -3 2 6 0 20 -5 31 -8 15 -4 23 18 42 26 21 71 41 100 43 6 1 14 -20 17
-46z m-6144 -70 c1 -12 7 -23 13 -25 21 -7 -8 -58 -32 -58 -20 0 -21 4 -14 63
4 34 9 66 12 71 7 12 20 -21 21 -51z m5711 -103 c8 -5 12 -12 9 -15 -8 -8 -39
5 -39 16 0 11 11 11 30 -1z m587 -17 c9 -39 8 -81 -6 -130 -6 -23 -12 -65 -13
-93 -1 -27 -7 -50 -13 -50 -20 0 -34 56 -40 161 -6 91 -5 108 10 122 26 26 54
21 62 -10z m-6407 -23 c0 -19 -7 -34 -20 -42 -11 -7 -20 -20 -20 -29 0 -9 -10
-27 -21 -40 -12 -13 -37 -43 -56 -66 -45 -54 -57 -55 -49 -3 6 36 4 41 -18 50
-26 9 -56 46 -56 67 0 7 9 13 19 13 11 0 32 10 48 23 44 36 113 62 98 37 -9
-15 19 -12 41 5 28 21 34 18 34 -15z m5762 5 c54 -29 124 -35 114 -10 -6 17 6
19 32 6 9 -6 33 -12 53 -16 20 -3 45 -15 55 -26 10 -11 33 -27 51 -34 31 -13
31 -14 20 -50 -6 -20 -26 -53 -44 -73 -18 -20 -33 -40 -33 -44 0 -5 -20 -18
-44 -30 l-44 -21 -32 26 c-17 15 -40 27 -51 27 -11 0 -18 4 -14 9 3 5 -4 12
-15 16 -11 3 -32 26 -46 51 -14 24 -29 44 -33 44 -7 0 -26 58 -36 113 -9 45 1
47 67 12z m-5668 -77 c-9 -18 -37 -55 -63 -82 -85 -90 -91 -97 -107 -127 -18
-35 -11 -49 14 -31 31 22 62 35 69 29 23 -23 -73 -171 -131 -204 -14 -8 -15
-14 -6 -37 16 -44 12 -71 -16 -99 l-26 -27 -19 24 c-23 29 -24 67 -4 106 14
28 14 30 -5 42 -21 14 -26 38 -10 54 5 5 33 56 63 114 83 160 185 295 237 312
22 7 24 -34 4 -74z m199 -63 c43 -11 58 -51 52 -136 -2 -40 -9 -77 -14 -82 -5
-5 -54 -6 -117 -2 l-109 8 -22 33 c-40 61 -29 131 24 148 13 4 20 13 17 21 -4
8 3 15 18 18 29 6 114 1 151 -8z m149 4 c11 -6 50 -15 86 -20 74 -11 89 -20
109 -67 14 -34 77 -122 96 -134 7 -4 -9 -16 -35 -27 -67 -28 -118 -41 -118
-30 0 6 -13 24 -30 42 -16 18 -30 36 -30 41 0 4 -7 5 -16 2 -8 -3 -13 -2 -10
3 6 9 -45 36 -79 43 -18 3 -20 10 -18 70 2 88 7 97 45 77z m3613 -35 c-83 -31
-285 -64 -422 -70 -160 -7 -367 9 -451 35 l-57 18 205 8 c445 17 579 22 670
23 95 1 95 1 55 -14z m2180 -50 c6 -40 6 -41 -22 -40 -15 0 -31 8 -36 16 -4 9
-6 2 -4 -17 4 -40 -8 -34 -23 13 -15 44 -1 66 25 40 24 -23 36 -20 29 8 -7 30
5 56 16 35 4 -8 11 -33 15 -55z m-5118 21 c3 -9 3 -19 -1 -22 -7 -7 -36 16
-36 28 0 15 30 10 37 -6z m1407 -217 c58 -226 75 -282 83 -262 3 9 -31 149
-93 389 -3 11 21 -21 54 -70 87 -131 279 -321 493 -487 42 -32 82 -70 89 -84
8 -15 22 -24 36 -24 13 0 54 -20 92 -44 125 -82 241 -121 339 -115 30 2 48 -1
51 -9 7 -21 44 -13 86 18 23 17 80 54 128 83 125 74 375 280 638 525 36 33 66
59 67 58 2 -2 -27 -102 -76 -261 -42 -134 -93 -387 -81 -399 10 -10 10 -10 40
149 12 61 28 135 37 165 13 49 64 212 67 217 1 1 44 -39 95 -89 l94 -91 -6
-169 c-5 -150 -8 -171 -26 -194 -25 -32 -28 -96 -7 -136 9 -18 13 -41 9 -65
-11 -68 -186 -298 -295 -388 -61 -51 -86 -67 -75 -47 6 9 37 186 37 209 0 39
-18 -7 -29 -77 -29 -174 -25 -164 -99 -208 -62 -37 -197 -92 -225 -92 -7 0 10
46 39 108 63 130 157 377 152 400 -2 10 -12 -4 -22 -33 -55 -149 -133 -339
-167 -407 -31 -62 -44 -78 -62 -78 -12 0 -39 -3 -59 -6 -34 -6 -38 -4 -65 34
-15 22 -38 45 -51 51 -57 27 -146 0 -173 -51 -26 -51 -35 -56 -97 -46 -138 21
-333 106 -477 208 -49 36 -140 114 -201 175 -117 117 -189 216 -275 379 l-51
97 26 40 c34 51 41 88 26 134 -15 45 -60 75 -115 75 -23 0 -46 5 -53 12 -9 9
-12 91 -12 308 l0 297 23 11 c12 6 25 11 28 11 3 1 31 -99 63 -221z m-798 167
c8 -18 16 -39 18 -47 1 -7 5 -19 9 -25 12 -19 1 -16 -43 12 -43 27 -70 31 -87
14 -9 -9 -11 -5 -9 15 1 14 5 29 9 32 3 3 3 13 0 22 -4 9 -2 13 4 9 5 -3 23
-2 39 2 36 10 40 8 60 -34z m3360 -311 c-2 -6 -19 -14 -38 -16 -18 -3 -42 -9
-52 -13 -16 -7 -18 -5 -13 9 4 10 14 47 23 84 9 37 31 119 48 182 l31 115 3
-175 c1 -96 0 -180 -2 -186z m-3520 299 c-11 -11 -17 4 -9 23 7 18 8 18 11 1
2 -10 1 -21 -2 -24z m2343 1 c16 -20 21 -41 21 -85 0 -33 -3 -58 -7 -57 -5 1
-42 -4 -83 -12 -55 -9 -138 -11 -310 -7 -164 3 -227 2 -210 -5 14 -6 117 -13
230 -15 187 -5 284 1 358 23 21 6 22 4 22 -54 0 -111 -68 -301 -177 -491 -75
-132 -79 -135 -182 -128 -77 5 -94 10 -195 60 -61 31 -128 70 -149 89 -35 30
-39 40 -52 113 -34 206 -28 420 16 508 40 79 22 75 287 70 130 -2 264 0 297 5
99 16 112 14 134 -14z m2300 -46 c-8 -14 -14 -18 -17 -10 -4 13 17 46 25 38 3
-2 -1 -15 -8 -28z m-133 -25 c-11 -11 -19 6 -11 24 8 17 8 17 12 0 3 -10 2
-21 -1 -24z m-4498 4 c13 4 12 2 -3 -10 -21 -16 -40 -4 -28 17 4 6 8 6 10 -1
3 -7 12 -9 21 -6z m4467 -14 c-7 -30 -23 -53 -35 -53 -5 0 -1 18 7 40 18 45
39 55 28 13z m298 -28 c0 -28 -4 -63 -7 -80 -4 -16 -9 -42 -12 -57 -6 -31 -33
-59 -35 -37 -2 22 -2 22 5 52 5 21 4 27 -5 21 -9 -5 -11 7 -6 49 10 77 23 109
45 105 14 -3 17 -13 15 -53z m-5889 -9 c8 -13 29 -27 46 -31 17 -4 27 -11 24
-17 -4 -6 2 -8 17 -4 23 7 23 6 4 -6 -24 -15 -281 -135 -305 -143 -14 -5 -21
5 -36 51 -17 55 -17 58 2 93 17 33 24 36 70 41 28 3 61 13 75 22 37 26 84 23
103 -6z m5626 15 c0 -6 -4 -13 -10 -16 -5 -3 -10 1 -10 9 0 9 5 16 10 16 6 0
10 -4 10 -9z m-3890 -103 c17 -57 54 -173 82 -258 33 -99 54 -182 58 -229 6
-66 10 -77 38 -102 16 -15 33 -36 37 -48 8 -27 25 -27 25 -1 0 16 7 20 31 20
46 0 66 -16 95 -73 146 -287 360 -521 600 -656 139 -77 346 -151 426 -151 15
0 28 -4 28 -10 0 -5 6 -10 13 -10 7 0 21 -16 31 -34 27 -51 100 -71 155 -43
14 6 37 32 51 57 25 42 29 45 78 50 29 3 52 4 52 3 0 -1 -8 -17 -18 -35 -10
-18 -36 -64 -56 -101 -21 -37 -35 -71 -31 -75 4 -4 9 -2 12 3 2 6 30 58 63
116 53 95 63 107 92 113 54 11 162 55 222 91 31 18 56 30 56 27 0 -4 -7 -32
-15 -62 -17 -64 -19 -83 -6 -76 5 4 17 40 27 81 17 74 18 75 96 142 43 37 105
100 137 138 67 81 181 241 181 255 0 16 44 34 77 31 46 -4 99 25 117 64 23 48
20 83 -11 124 -23 30 -27 44 -24 81 2 25 4 66 5 93 1 26 4 47 7 47 3 0 51 -42
105 -93 54 -51 119 -112 144 -134 l45 -42 -2 -193 c-2 -230 -19 -352 -55 -380
-75 -59 -423 -208 -932 -399 -115 -43 -225 -90 -246 -104 -50 -35 -105 -93
-96 -102 4 -5 16 4 27 19 41 56 113 95 294 161 393 142 813 317 913 381 24 15
45 26 47 24 11 -11 -67 -166 -155 -307 -56 -90 -105 -171 -108 -180 -4 -9 -20
-37 -35 -63 -25 -41 -35 -49 -85 -63 -122 -36 -175 -40 -557 -40 -347 0 -391
2 -500 22 -220 40 -385 109 -604 253 -207 135 -299 209 -481 384 l-174 168
-63 136 c-35 74 -62 137 -60 138 2 2 50 -32 257 -185 159 -118 221 -159 523
-347 153 -96 310 -195 350 -221 72 -48 162 -130 183 -168 7 -11 15 -17 19 -13
10 10 -13 44 -61 91 -55 54 -137 109 -584 388 -184 115 -286 185 -444 303 -88
67 -185 138 -213 158 -48 34 -59 51 -119 170 -101 201 -225 430 -300 553 -43
69 -43 70 -21 79 65 26 127 61 172 96 28 21 51 39 52 39 1 1 16 -45 33 -101z
m3873 52 c-7 -26 -15 -31 -32 -20 -12 6 -11 11 0 24 20 22 38 20 32 -4z
m-5921 -42 c-2 -29 -12 -67 -22 -84 -10 -18 -14 -37 -10 -44 19 -31 -10 -65
-97 -115 -48 -27 -91 -51 -94 -53 -4 -2 -10 26 -13 62 -9 76 0 98 68 170 25
26 46 57 46 67 0 17 11 24 33 20 4 -1 10 6 13 14 4 10 19 15 44 15 l37 0 -5
-52z m5697 -15 c22 -54 57 -113 64 -106 10 10 8 -11 -2 -22 -5 -6 -14 -28 -21
-49 -12 -39 -98 -136 -120 -136 -5 0 -10 -5 -10 -11 0 -5 -16 -30 -36 -54 -34
-40 -39 -42 -63 -32 -36 16 -49 30 -57 61 -6 27 -27 35 -40 15 -11 -18 -26 18
-18 43 4 12 13 28 20 36 8 7 14 31 14 53 0 48 11 49 39 7 19 -30 21 -31 21
-10 0 12 5 22 10 22 21 0 50 41 50 70 0 17 5 30 10 30 6 0 10 5 10 12 0 14 90
97 107 98 6 0 16 -12 22 -27z m-663 -139 c-6 -23 -5 -24 7 -13 8 8 16 21 20
29 4 11 6 9 6 -5 1 -26 61 -31 121 -10 60 21 71 20 67 -10 -1 -13 -6 -27 -10
-31 -4 -4 -7 -16 -7 -26 0 -10 -4 -18 -10 -18 -5 0 -10 -7 -10 -15 0 -8 -4
-15 -10 -15 -5 0 -12 -11 -16 -24 -3 -14 -12 -27 -21 -30 -8 -3 -11 -10 -8
-16 3 -5 -2 -10 -12 -10 -19 0 -53 20 -83 49 -48 47 -91 81 -97 80 -5 -1 -11
0 -15 1 -5 1 -17 3 -28 4 -11 0 -19 6 -17 11 1 6 5 9 10 8 4 -2 7 2 7 9 0 6 7
3 15 -8 14 -19 15 -19 21 2 4 15 12 20 30 18 18 -2 26 4 30 22 3 13 8 24 11
24 3 0 2 -12 -1 -26z m480 -21 c-12 -12 -29 15 -21 34 7 17 8 16 18 -5 5 -12
7 -25 3 -29z m-3125 -233 c23 -13 49 -61 49 -93 0 -13 -11 -41 -25 -61 -14
-20 -25 -42 -25 -48 0 -5 -7 -7 -16 -4 -9 3 -31 6 -50 6 -19 0 -34 5 -34 10 0
6 15 10 33 10 31 0 60 18 86 52 9 13 10 26 1 58 -9 33 -18 44 -46 56 -19 8
-45 12 -59 8 -15 -4 -25 -2 -25 5 0 14 85 15 111 1z m2369 -64 c0 -80 -10
-113 -37 -131 -14 -9 -27 -14 -30 -12 -7 8 49 197 58 197 5 0 9 -24 9 -54z
m-2383 20 c24 -23 25 -61 3 -89 -17 -21 -30 -27 -61 -27 l-39 0 0 60 c0 54 3
62 23 70 24 9 56 4 74 -14z m2932 -49 c31 -13 71 -71 71 -102 0 -8 5 -15 10
-15 6 0 10 -7 10 -16 0 -14 -3 -14 -15 -4 -13 11 -14 10 -9 -4 4 -10 13 -14
23 -11 10 3 21 -3 29 -16 8 -12 10 -19 5 -16 -5 3 -15 2 -23 -4 -13 -7 -12 -9
3 -9 24 0 21 -13 -7 -26 -23 -11 -30 -5 -113 85 -83 89 -101 121 -68 121 7 0
18 7 25 15 15 18 19 18 59 2z m-3073 -85 c-6 -6 -26 43 -25 61 0 7 7 -3 15
-22 8 -18 13 -36 10 -39z m2514 -45 c0 -8 11 -24 25 -37 17 -16 25 -34 25 -57
0 -68 -31 -94 -121 -103 -50 -5 -55 -4 -51 13 3 13 10 16 26 10 92 -32 152 52
90 126 -14 17 -36 32 -47 32 -21 1 -21 2 -2 6 11 3 24 9 30 14 13 13 25 11 25
-4z m-148 -93 c-4 -63 -13 -67 -14 -6 0 33 7 62 15 62 1 0 0 -25 -1 -56z m128
36 c24 -24 26 -72 4 -94 -19 -19 -53 -20 -76 -2 -16 12 -16 16 -1 64 19 58 39
66 73 32z m1723 -637 c-7 -2 -19 -2 -25 0 -7 3 -2 5 12 5 14 0 19 -2 13 -5z
m-2783 -83 c24 -13 64 -81 51 -89 -5 -3 -13 -19 -16 -34 -21 -81 -142 -91
-181 -15 -9 18 -21 36 -26 39 -11 7 20 70 46 91 23 19 96 24 126 8z m-1016
-386 c3 -8 3 -14 0 -14 -7 0 -34 27 -34 34 0 11 29 -6 34 -20z m54 -36 c19
-19 14 -29 -8 -16 -20 13 -27 28 -12 28 4 0 13 -5 20 -12z m-19 -70 c-8 -14
-14 -17 -22 -9 -7 7 -6 15 4 27 12 16 12 17 -3 11 -10 -3 -18 -3 -18 2 0 18
14 20 31 5 14 -13 16 -21 8 -36z m71 24 c0 -5 10 -14 23 -20 12 -6 17 -11 11
-11 -7 -1 -22 8 -35 19 -13 10 -18 19 -11 20 6 0 12 -4 12 -8z m-39 -39 c-5
-10 -9 -22 -9 -28 -1 -10 -22 -21 -22 -10 0 8 31 55 37 55 2 0 -1 -8 -6 -17z
m49 -24 c0 -5 -6 -8 -12 -6 -7 1 -12 -6 -10 -15 2 -12 -3 -18 -15 -17 -11 0
-13 3 -5 6 6 2 9 9 6 14 -10 17 4 39 21 33 8 -3 15 -10 15 -15z m90 -16 c0 -7
-39 17 -46 28 -3 6 5 3 20 -6 14 -10 26 -19 26 -22z m-37 -20 c17 -9 17 -11 2
-23 -13 -11 -14 -10 -9 5 5 13 4 16 -5 11 -7 -5 -11 -16 -8 -26 3 -13 0 -17
-9 -13 -16 6 -18 19 -4 28 6 3 10 12 10 18 -1 7 -10 1 -20 -12 -25 -29 -26
-18 -2 14 9 12 19 20 22 16 3 -4 13 -12 23 -18z m110 -26 c4 3 7 4 7 0 0 -18
-20 -13 -41 11 l-24 27 26 -23 c14 -12 29 -19 32 -15z m-213 -8 c0 -6 -4 -7
-10 -4 -5 3 -10 11 -10 16 0 6 5 7 10 4 6 -3 10 -11 10 -16z m142 -2 c-7 -8
-7 -18 -2 -27 8 -13 10 -12 10 3 0 9 5 17 10 17 6 0 10 -4 10 -9 0 -6 -4 -13
-10 -16 -5 -3 -10 -12 -10 -18 1 -7 10 -1 20 12 11 13 20 19 20 14 0 -6 -9
-18 -20 -28 -18 -16 -20 -16 -26 -1 -3 9 -9 14 -13 12 -4 -3 -13 0 -21 6 -12
8 -11 9 4 4 13 -4 17 -2 13 8 -3 7 0 19 6 25 15 15 22 14 9 -2z m135 -30 c23
-17 2 -27 -22 -11 -14 9 -22 20 -19 25 5 9 17 5 41 -14z m-252 3 c-3 -5 -1
-18 4 -27 8 -15 11 -15 12 -3 1 8 1 18 0 22 0 4 6 5 13 2 12 -5 12 -9 -2 -25
-14 -16 -18 -17 -31 -5 -13 13 -10 46 4 46 4 0 3 -4 0 -10z m210 -52 c-6 -22
-6 -22 9 -4 9 11 16 16 16 11 0 -16 -32 -44 -46 -38 -11 4 -10 9 3 29 19 30
26 31 18 2z m109 16 c13 -5 14 -10 5 -20 -8 -10 -16 -11 -30 -3 -32 17 -10 36
25 23z m-256 -29 c-3 -3 -9 2 -12 12 -6 14 -5 15 5 6 7 -7 10 -15 7 -18z m47
3 c4 4 2 -3 -4 -15 -14 -27 -23 -31 -14 -5 6 15 5 16 -13 2 -12 -9 -15 -9 -7
-1 6 7 9 21 6 30 -4 14 -3 14 10 -1 8 -10 18 -14 22 -10z m65 2 c-8 -5 -17 -7
-19 -4 -3 3 1 9 9 14 8 5 17 7 19 4 3 -3 -1 -9 -9 -14z m208 -8 c7 -5 10 -16
6 -25 -9 -24 -24 -21 -19 3 2 11 0 20 -6 20 -5 0 -9 -7 -9 -16 0 -8 -5 -12
-10 -9 -8 5 -7 11 1 21 13 16 19 17 37 6z m-103 -22 c4 -12 1 -27 -5 -35 -10
-12 -14 -11 -30 3 -18 15 -18 17 -3 34 21 23 30 23 38 -2z m-239 -23 c1 -9 -2
-17 -7 -17 -5 0 -9 2 -9 4 0 2 -3 12 -7 22 -4 11 -2 15 7 12 7 -2 14 -12 16
-21z m102 15 c-13 -5 -15 -11 -8 -22 7 -11 10 -11 10 -2 0 7 5 10 10 7 6 -3
10 -1 10 5 0 6 5 8 12 4 9 -6 9 -9 0 -12 -7 -2 -12 -11 -13 -20 0 -11 -2 -12
-6 -4 -2 6 -8 10 -13 7 -11 -7 -33 22 -25 35 3 5 14 10 23 9 16 0 16 -1 0 -7z
m302 -12 c13 20 13 4 0 -21 -12 -21 -18 -23 -39 -10 -12 8 -13 12 -1 26 10 13
15 13 22 3 6 -10 10 -10 18 2z m-376 -9 c3 -4 -3 -16 -14 -26 -19 -17 -19 -17
-7 9 14 29 14 29 21 17z m256 5 c0 -2 -8 -10 -17 -17 -16 -13 -17 -12 -4 4 13
16 21 21 21 13z m14 -42 c-20 -29 -29 -32 -14 -4 6 11 8 20 5 20 -4 0 -3 5 0
10 4 6 11 8 16 5 5 -4 2 -17 -7 -31z m-105 -20 c-8 -10 -16 -11 -30 -3 -16 8
-17 14 -8 30 10 20 11 20 30 3 14 -13 16 -20 8 -30z m271 36 c0 -5 -4 -10 -10
-10 -5 0 -10 5 -10 10 0 6 5 10 10 10 6 0 10 -4 10 -10z m80 -16 c0 -2 -9 0
-20 6 -11 6 -20 13 -20 16 0 2 9 0 20 -6 11 -6 20 -13 20 -16z m-470 5 c12 -8
11 -9 -6 -4 -14 4 -24 0 -27 -9 -5 -12 1 -14 24 -11 16 2 27 0 24 -5 -3 -5
-13 -6 -23 -3 -15 6 -16 5 -2 -12 13 -17 13 -18 0 -10 -35 19 -40 27 -29 46
11 22 18 23 39 8z m279 -50 c-7 -15 -14 -19 -17 -11 -2 6 -8 10 -12 7 -5 -3
-11 -1 -15 5 -5 9 15 15 38 11 9 -1 9 13 0 22 -3 4 -13 1 -22 -6 -14 -11 -14
-10 -2 6 12 16 16 16 29 4 11 -12 12 -19 1 -38z m77 32 c0 -15 -3 -17 -13 -9
-7 6 -10 14 -7 19 9 15 20 10 20 -10z m169 1 c-3 -3 -11 0 -18 7 -9 10 -8 11
6 5 10 -3 15 -9 12 -12z m-75 -18 c0 -3 -4 -2 -10 1 -5 3 -10 1 -10 -4 0 -6
-4 -11 -10 -11 -5 0 -6 7 -3 17 5 12 3 14 -7 8 -9 -5 -11 -4 -6 3 5 9 13 9 27
2 10 -6 19 -13 19 -16z m70 -5 c0 -4 -7 -6 -15 -3 -8 4 -15 10 -15 15 0 4 7 6
15 3 8 -4 15 -10 15 -15z m51 2 c-8 -6 -11 -17 -6 -32 3 -13 3 -19 -2 -14 -5
6 -11 13 -15 16 -4 3 0 15 8 28 9 12 19 20 22 16 4 -3 0 -10 -7 -14z m-394 -2
c9 -9 9 -16 1 -29 -16 -26 -51 -4 -37 22 11 21 20 23 36 7z m-101 -14 c19 -14
18 -15 -4 -21 -18 -5 -20 -9 -10 -15 10 -7 9 -9 -4 -9 -23 0 -23 16 -2 28 12
7 13 11 5 17 -7 4 -19 -1 -27 -11 -14 -18 -14 -18 -4 4 13 26 20 27 46 7z
m253 -33 c-10 -16 -16 -18 -30 -9 -16 10 -16 12 -1 33 14 19 19 20 30 10 11
-11 11 -17 1 -34z m93 24 c7 4 8 2 4 -4 -5 -9 -12 -9 -26 0 -10 7 -16 16 -13
21 3 5 10 2 15 -7 5 -9 14 -13 20 -10z m262 15 c11 -4 15 -10 9 -14 -5 -3 -19
0 -29 8 -20 15 -11 18 20 6z m-191 -35 c-17 -31 -26 -36 -39 -25 -11 9 -10 15
3 35 12 19 19 22 29 13 8 -6 11 -16 7 -23z m106 12 c-12 -21 -24 -24 -16 -4 3
8 1 17 -6 19 -7 3 -2 4 10 4 17 -1 20 -4 12 -19z m-635 -4 c3 -8 2 -12 -4 -9
-6 3 -10 10 -10 16 0 14 7 11 14 -7z m800 7 c3 -4 -1 -16 -8 -27 -12 -15 -16
-16 -30 -5 -12 10 -14 17 -5 27 13 16 35 18 43 5z m-550 -13 c-5 -8 -2 -9 9
-5 10 3 17 3 17 -2 0 -9 -41 -23 -48 -16 -3 3 1 11 8 20 15 18 24 20 14 3z
m424 1 c-2 -6 3 -14 11 -17 9 -3 11 0 6 9 -6 11 -5 11 5 2 10 -9 9 -16 -5 -35
-10 -13 -15 -16 -12 -6 3 9 0 19 -8 22 -9 3 -12 0 -8 -10 4 -10 0 -12 -11 -8
-14 5 -14 8 1 30 17 26 24 31 21 13z m207 1 c3 -5 2 -10 -4 -10 -5 0 -13 5
-16 10 -3 6 -2 10 4 10 5 0 13 -4 16 -10z m-711 -51 c-13 -15 -20 -16 -35 -6
-10 6 -19 15 -19 19 0 14 22 20 33 9 21 -21 30 -11 11 12 l-19 22 23 -19 c20
-18 21 -21 6 -37z m257 34 c11 -13 11 -15 1 -9 -9 6 -12 3 -10 -9 4 -21 -11
-28 -32 -15 -12 8 -13 11 -2 22 11 11 13 10 10 -1 -2 -7 2 -15 8 -18 14 -5 13
29 -1 39 -6 5 -6 8 1 8 6 0 18 -8 25 -17z m496 4 c-2 -6 1 -18 8 -24 10 -10
15 -9 19 4 4 9 9 13 13 10 3 -4 0 -13 -7 -22 -12 -14 -15 -14 -31 1 -15 14
-17 44 -2 44 3 0 3 -6 0 -13z m-327 -21 c0 -1 -10 -2 -22 -2 -25 1 -32 -24 -9
-32 8 -3 11 0 8 5 -3 5 0 10 7 10 11 0 12 -4 3 -18 -11 -17 -12 -17 -32 -1
-11 9 -21 17 -22 18 -2 0 5 10 14 21 13 16 22 19 35 12 10 -5 18 -11 18 -13z
m458 11 c14 0 16 -13 2 -22 -5 -3 -10 -2 -10 3 0 5 -10 14 -22 21 -18 9 -18
10 -3 5 11 -3 26 -7 33 -7z m-989 -39 c-12 -22 -21 -24 -13 -3 4 8 0 23 -7 32
-13 15 -12 15 8 3 17 -11 19 -18 12 -32z m786 32 c11 -5 14 -9 7 -9 -7 -1 -11
-5 -8 -9 2 -4 1 -13 -3 -20 -5 -9 -13 -7 -26 9 -11 11 -15 20 -10 19 21 -5 29
1 15 10 -18 12 -2 12 25 0z m281 -5 c9 -8 11 -15 5 -15 -5 0 -13 5 -17 11 -7
12 -24 -6 -24 -26 0 -5 4 -5 8 2 5 8 13 9 22 3 8 -6 13 -10 10 -11 -3 0 -13
-2 -23 -4 -23 -4 -33 20 -17 40 15 19 18 19 36 0z m-866 -5 c0 -5 -4 -10 -10
-10 -5 0 -10 5 -10 10 0 6 5 10 10 10 6 0 10 -4 10 -10z m57 -6 c1 -5 -2 -16
-7 -24 -12 -20 -33 0 -24 24 7 17 25 17 31 0z m407 1 c-4 -8 -1 -15 5 -15 6 0
11 5 11 11 0 5 5 7 11 3 8 -5 8 -9 -1 -14 -6 -4 -11 -10 -11 -14 3 -20 -1 -26
-14 -26 -8 0 -15 5 -15 10 0 6 8 10 18 10 14 0 15 2 2 10 -9 6 -19 5 -29 -3
-10 -8 -8 -3 3 16 20 30 29 35 20 12z m490 0 c-5 -12 -10 -13 -20 -4 -19 15
-18 19 6 19 13 0 18 -5 14 -15z m166 4 c0 -4 -7 -12 -15 -19 -18 -15 -42 0
-31 18 7 12 46 12 46 1z m136 -11 c-12 -20 -22 -23 -31 -8 -9 15 3 29 24 27
15 -1 17 -4 7 -19z m-1049 -29 c-14 -23 -26 -24 -33 -4 -9 23 15 48 32 34 10
-8 11 -15 1 -30z m524 22 c-8 -14 -7 -20 4 -25 8 -3 14 0 12 6 -1 6 4 12 11
14 7 1 8 0 2 -3 -5 -2 -8 -9 -4 -14 12 -20 -8 -28 -30 -12 -20 16 -21 19 -7
35 20 23 24 23 12 -1z m285 -19 c-19 -19 -42 -3 -32 23 5 13 10 14 27 4 20
-10 20 -12 5 -27z m-1241 18 c-3 -5 -11 -10 -16 -10 -6 0 -7 5 -4 10 3 6 11
10 16 10 6 0 7 -4 4 -10z m179 4 c9 -3 16 -13 16 -22 0 -13 -2 -13 -13 3 -9
11 -19 15 -27 10 -9 -5 -11 -4 -6 3 8 14 9 14 30 6z m706 -20 c0 -3 -4 -2 -10
1 -5 3 -10 -1 -10 -10 0 -9 4 -13 10 -10 6 3 7 -1 3 -10 -4 -12 -8 -13 -13 -5
-4 6 -10 11 -14 10 -21 -5 -28 7 -15 27 10 17 17 19 31 12 10 -5 18 -12 18
-15z m509 -5 c-11 -21 -24 -24 -34 -9 -4 6 -1 9 6 8 6 -2 14 3 17 11 3 9 0 11
-8 6 -8 -5 -11 -4 -6 3 4 6 13 9 21 6 11 -5 12 -11 4 -25z m145 9 c-4 -6 -9
-6 -14 2 -5 8 -9 8 -13 -4 -3 -8 -1 -17 6 -20 7 -2 4 -5 -5 -5 -21 -1 -22 3
-8 29 6 11 17 17 25 14 8 -4 12 -11 9 -16z m-1469 2 c4 -6 1 -9 -6 -8 -6 2
-13 -2 -15 -7 -2 -6 5 -11 16 -11 11 0 20 5 20 10 0 5 3 7 6 3 3 -3 -2 -16
-11 -29 -12 -16 -16 -17 -11 -5 3 11 1 17 -7 16 -35 -4 -40 1 -22 21 21 23 22
23 30 10z m518 3 c-15 -6 -18 -43 -3 -43 5 0 7 6 4 14 -4 10 1 14 14 13 18 -1
19 -3 5 -24 -18 -27 -20 -27 -37 -10 -16 15 -3 57 16 56 10 0 10 -2 1 -6z
m567 -13 c0 -15 -38 -41 -45 -31 -3 6 -1 11 4 11 6 0 10 3 10 8 -4 21 3 31 16
26 8 -4 15 -9 15 -14z m-815 0 c8 -13 -5 -13 -25 0 -13 8 -13 10 2 10 9 0 20
-4 23 -10z m408 -7 c-6 -16 -5 -16 10 -4 15 12 17 12 11 -4 -5 -13 -4 -16 5
-11 9 6 9 3 -1 -13 l-13 -21 -13 23 -13 22 5 -23 c4 -19 2 -21 -9 -12 -12 10
-12 16 2 36 18 28 25 31 16 7z m-573 -9 c0 -8 -5 -12 -10 -9 -6 4 -8 11 -5 16
9 14 15 11 15 -7z m325 1 c19 -15 19 -16 -3 -37 -18 -19 -22 -20 -22 -6 0 9
-4 20 -10 23 -6 4 -7 -1 -3 -12 5 -14 3 -15 -6 -7 -10 9 -10 17 -2 33 14 25
19 25 46 6z m784 8 c-3 -21 2 -33 13 -27 7 4 8 3 4 -4 -10 -17 -26 -15 -26 4
0 8 -4 12 -10 9 -6 -3 -7 1 -4 9 6 16 25 23 23 9z m163 -7 c6 4 5 -2 -1 -15
-12 -22 -41 -29 -41 -10 0 5 4 8 9 4 5 -3 12 -1 16 5 3 5 1 10 -5 10 -6 0 -8
5 -4 12 6 9 9 9 12 0 2 -7 8 -9 14 -6z m-1203 -5 c17 -11 6 -31 -17 -31 -15 0
-15 -2 -2 -10 8 -5 10 -10 4 -10 -6 0 -17 7 -24 16 -8 8 -9 14 -4 13 24 -4 45
2 39 12 -4 6 -14 8 -22 5 -8 -3 -11 -1 -8 4 8 12 16 12 34 1z m87 -9 c1 -7 0
-8 -2 -3 -3 6 -12 7 -21 4 -11 -4 -14 -3 -9 6 9 14 29 10 32 -7z m722 5 c7 -8
6 -18 -4 -31 -13 -19 -14 -19 -34 -1 -15 14 -17 21 -9 32 14 16 33 17 47 0z
m162 -17 c0 -5 -6 -12 -12 -16 -7 -4 -10 -3 -5 1 4 5 -1 17 -10 28 -17 19 -17
20 5 8 12 -6 22 -16 22 -21z m-551 6 c9 -11 10 -20 1 -35 -13 -25 -18 -27 -16
-5 0 9 -5 19 -12 21 -8 3 -10 -2 -6 -14 5 -15 4 -15 -5 -3 -8 11 -7 18 4 26 8
6 12 14 8 17 -3 4 -2 7 4 7 6 0 16 -6 22 -14z m274 0 c21 -16 22 -30 2 -46
-18 -15 -20 1 -3 18 7 7 8 12 2 12 -5 0 -15 -5 -21 -11 -18 -18 -35 -1 -20 21
14 23 16 24 40 6z m-793 -36 c-9 -17 -14 -18 -30 -8 -14 9 -16 14 -7 20 9 6 8
8 -3 8 -13 0 -13 2 -1 9 9 6 22 6 33 0 14 -8 16 -14 8 -29z m249 31 c12 -8 12
-12 2 -25 -17 -20 -27 -20 -35 0 -11 29 6 42 33 25z m449 -39 c-6 -7 -20 -10
-32 -7 -21 6 -21 6 -2 -9 23 -18 14 -21 -15 -6 -15 9 -17 13 -7 24 9 10 17 11
26 4 7 -6 16 -8 20 -4 4 4 -1 12 -11 17 -9 6 -17 14 -17 20 0 5 11 2 24 -8 18
-13 21 -21 14 -31z m330 35 c-1 -2 3 -11 11 -20 7 -10 9 -17 3 -17 -5 0 -15 7
-22 15 -9 11 -9 15 -1 15 7 0 9 5 5 13 -4 6 -4 9 0 5 4 -3 6 -8 4 -11z m180
-16 c-7 -9 -13 -18 -15 -20 -1 -1 -6 0 -12 4 -17 10 6 46 24 38 13 -4 13 -8 3
-22z m142 8 c0 -5 -7 -9 -16 -9 -9 0 -12 -5 -8 -12 4 -7 3 -8 -4 -4 -9 5 -9
12 0 26 12 18 28 18 28 -1z m-1453 -30 c-8 -13 -13 -15 -16 -7 -2 7 -8 21 -13
30 -8 16 -6 17 16 7 21 -10 23 -14 13 -30z m248 23 c13 -8 13 -22 1 -40 -6
-10 -11 -10 -22 -1 -8 6 -14 17 -14 23 0 6 7 2 15 -8 17 -23 20 -14 5 15 -11
19 -4 25 15 11z m254 -19 c-10 -27 -2 -30 18 -5 13 15 13 15 3 -5 -12 -26 -14
-27 -41 -13 -15 9 -17 14 -8 29 18 27 39 23 28 -6z m566 17 c3 -5 1 -10 -5
-10 -6 0 -9 -4 -6 -8 2 -4 1 -14 -3 -20 -6 -10 -11 -9 -21 3 -11 13 -10 15 6
9 16 -6 17 -5 7 7 -7 7 -13 17 -13 21 0 11 28 10 35 -2z m130 -16 c-8 -9 -12
-20 -9 -26 4 -7 2 -8 -4 -4 -8 5 -8 13 0 31 6 13 15 22 20 19 4 -3 1 -12 -7
-20z m-785 -38 c-13 -13 -18 -13 -33 -1 -16 11 -16 16 -5 34 13 21 13 21 33 1
17 -18 18 -22 5 -34z m947 13 c-11 -18 -12 -18 -19 -1 -4 11 -7 12 -7 3 -1 -8
-4 -12 -7 -9 -3 4 0 16 6 28 9 17 14 19 25 10 11 -9 12 -16 2 -31z m-1194 -2
c-5 -8 -8 -8 -11 1 -5 16 -22 16 -18 0 1 -7 1 -10 -1 -5 -3 4 -9 4 -15 1 -6
-4 -5 3 1 15 10 17 15 19 32 11 11 -6 16 -16 12 -23z m521 18 c18 -14 18 -15
2 -15 -9 0 -15 -4 -12 -8 2 -4 1 -13 -3 -20 -5 -9 -12 -7 -25 7 -15 17 -16 22
-4 35 16 19 18 19 42 1z m279 3 c14 -11 14 -16 2 -31 -11 -15 -17 -16 -34 -7
-23 12 -28 22 -7 14 7 -3 16 2 20 12 5 12 2 15 -9 10 -9 -3 -13 -2 -10 4 8 13
18 13 38 -2z m253 -20 c-9 -12 -16 -17 -16 -10 0 14 23 42 29 37 1 -2 -4 -14
-13 -27z m-359 0 c9 -7 9 -16 1 -34 -6 -13 -14 -24 -17 -24 -11 1 -45 30 -35
30 6 0 15 -5 21 -11 8 -8 13 -8 17 0 4 6 4 11 -1 11 -19 1 -33 18 -27 33 6 16
15 15 41 -5z m239 6 c-5 -12 -1 -14 17 -10 12 3 16 3 9 0 -6 -3 -10 -9 -8 -12
2 -4 -7 -8 -20 -8 -27 -2 -28 0 -14 27 13 23 25 26 16 3z m-1076 -9 c-7 -9
-10 -19 -6 -22 4 -4 12 -1 17 7 9 13 10 12 6 -2 -3 -9 -1 -19 6 -22 7 -2 7 -5
1 -5 -5 -1 -19 5 -29 13 -16 12 -17 16 -6 30 7 9 16 16 18 16 3 0 0 -7 -7 -15z
m270 4 c-12 -9 -11 -10 7 -6 19 4 20 2 11 -19 -9 -19 -14 -21 -30 -13 -14 8
-16 14 -8 29 6 11 16 20 23 20 8 0 7 -4 -3 -11z m264 -4 c-4 -8 -1 -15 5 -15
6 0 11 5 11 12 0 9 3 9 12 0 17 -17 -19 -57 -39 -41 -16 14 -17 31 -1 47 16
16 19 15 12 -3z m696 -4 c-17 -32 -11 -38 10 -11 11 14 20 21 19 15 0 -5 -6
-19 -14 -29 -21 -27 -42 -8 -26 23 7 12 14 21 17 21 2 0 0 -9 -6 -19z m155 9
c3 -5 1 -10 -4 -10 -6 0 -11 5 -11 10 0 6 2 10 4 10 3 0 8 -4 11 -10z m-1340
-9 c3 -5 2 -12 -3 -15 -5 -3 -9 1 -9 9 0 17 3 19 12 6z m142 -12 c13 -13 6
-39 -9 -39 -6 0 -5 6 2 15 14 17 0 21 -17 4 -9 -9 -10 -7 -6 10 6 24 14 26 30
10z m251 -7 c-19 -4 -23 -14 -11 -25 3 -4 12 -2 20 4 9 8 13 8 13 1 0 -18 -18
-24 -40 -12 -16 9 -18 14 -8 29 7 12 18 17 27 13 14 -6 14 -7 -1 -10z m282 3
c12 -14 7 -20 -14 -16 -5 1 -3 -5 4 -14 18 -21 7 -29 -21 -14 l-23 12 22 18
c15 12 18 19 10 22 -8 4 -9 6 -2 6 6 1 17 -6 24 -14z m-360 -27 c0 -5 -5 -8
-11 -8 -5 0 -8 -4 -4 -9 10 -17 -16 -24 -32 -8 -12 12 -13 18 -2 35 10 16 16
18 31 9 10 -7 18 -15 18 -19z m613 10 c-5 -23 -5 -23 10 -3 8 11 19 17 23 12
4 -4 2 -7 -4 -7 -7 0 -12 -7 -12 -15 0 -8 -4 -15 -9 -15 -15 0 -24 19 -17 35
8 23 15 18 9 -7z m186 -20 c-11 -20 -18 -22 -37 -9 -11 7 -12 12 -1 29 10 16
16 18 30 9 13 -8 15 -15 8 -29z m139 -3 c-9 -19 -14 -22 -28 -12 -17 10 -17
13 -3 34 12 18 19 21 29 12 10 -8 10 -16 2 -34z m72 35 c0 -5 -5 -10 -11 -10
-5 0 -7 5 -4 10 3 6 8 10 11 10 2 0 4 -4 4 -10z m-1281 -3 c-2 -1 -13 -9 -24
-17 -19 -14 -19 -14 -6 3 7 9 18 17 24 17 6 0 8 -1 6 -3z m534 -20 c4 3 7 1 7
-5 0 -18 -17 -23 -24 -6 -6 16 -26 11 -26 -7 0 -6 4 -8 9 -5 5 3 12 -1 15 -9
4 -13 2 -14 -14 -5 -24 13 -24 14 -7 40 10 18 13 18 23 5 6 -8 14 -12 17 -8z
m278 10 c16 -12 15 -37 -2 -37 -4 0 -6 6 -3 14 8 21 -12 28 -27 10 -11 -13
-10 -17 4 -25 9 -6 17 -15 17 -22 0 -7 -4 -6 -10 3 -5 8 -10 11 -10 6 0 -5 -7
-3 -15 4 -13 10 -12 15 3 36 20 27 22 28 43 11z m162 -26 c3 8 6 10 6 4 0 -5
-6 -19 -14 -29 -12 -15 -17 -17 -29 -7 -12 10 -13 18 -4 37 l12 25 12 -22 c8
-16 13 -18 17 -8z m-974 -3 c-9 -16 -14 -19 -17 -9 -2 7 2 17 9 22 20 13 21
11 8 -13z m131 1 c-7 -11 -14 -18 -17 -15 -3 3 0 12 7 21 18 21 23 19 10 -6z
m576 -25 c-1 -8 -8 -20 -14 -26 -17 -17 -55 21 -43 41 11 17 34 4 27 -15 -3
-7 -1 -16 3 -19 5 -2 11 4 14 14 3 12 -1 22 -9 25 -8 3 -14 11 -14 17 0 8 7 5
19 -5 10 -10 18 -24 17 -32z m-552 12 c-3 -9 -10 -16 -15 -16 -5 0 -4 9 3 20
14 22 21 20 12 -4z m261 10 c20 8 25 -9 9 -31 -8 -10 -14 -13 -14 -7 0 7 -8
12 -17 12 -15 0 -16 2 -3 10 11 7 11 10 2 10 -8 0 -10 5 -6 12 6 9 9 9 11 1 3
-7 10 -10 18 -7z m702 6 c10 -6 9 -13 -3 -31 -19 -26 -36 -16 -28 17 7 24 12
26 31 14z m126 -16 c-10 -13 -19 -23 -21 -21 -7 6 19 45 29 45 5 0 2 -11 -8
-24z m-1183 4 c9 -6 11 -10 3 -10 -7 0 -10 -6 -7 -14 8 -21 -11 -27 -32 -10
-10 9 -14 13 -8 10 7 -3 18 2 25 11 12 15 12 16 -4 10 -11 -4 -16 -3 -12 3 8
12 16 12 35 0z m259 -4 c9 -11 10 -20 1 -35 -13 -26 -13 -26 -36 0 -10 11 -14
20 -9 19 20 -4 35 0 35 11 0 6 -7 8 -16 5 -8 -3 -12 -2 -9 4 9 14 21 12 34 -4z
m539 2 c-2 -7 3 -12 10 -10 8 1 11 -2 7 -8 -5 -8 -11 -8 -20 0 -10 8 -15 6
-20 -10 -4 -12 -9 -19 -11 -17 -7 7 18 57 28 57 4 0 7 -6 6 -12z m-274 -20
c-4 -6 -9 -6 -14 2 -5 8 -9 7 -13 -4 -4 -9 -2 -16 4 -16 6 0 7 -5 3 -11 -4 -8
-9 -7 -15 2 -11 18 8 50 26 43 8 -4 12 -11 9 -16z m-614 -13 c0 -2 -8 -1 -17
2 -15 6 -16 4 -5 -9 10 -13 10 -18 1 -24 -7 -4 -9 -3 -5 4 3 6 2 13 -4 17 -5
3 -10 13 -10 21 0 12 4 12 20 4 11 -6 20 -13 20 -15z m225 15 c-3 -5 3 -10 14
-10 24 0 27 -13 7 -29 -11 -9 -16 -9 -22 0 -4 8 -3 9 4 5 7 -4 12 -3 12 2 0 6
-7 12 -15 16 -8 3 -15 0 -15 -6 0 -6 -2 -9 -5 -6 -8 8 6 38 17 38 5 0 6 -4 3
-10z m819 4 c20 -8 21 -28 2 -43 -17 -14 -39 9 -30 33 7 18 7 18 28 10z m-515
-31 c2 -1 -2 -9 -9 -18 -14 -16 -50 -4 -50 18 0 7 4 6 10 -3 5 -8 10 -10 10
-5 0 6 5 3 10 -5 8 -13 10 -12 10 3 0 9 -4 17 -10 17 -5 0 -10 5 -10 11 0 8 6
7 18 -2 9 -7 19 -15 21 -16z m264 -27 c-10 -12 -18 -22 -19 -24 0 -1 -9 8 -20
20 -10 12 -14 18 -7 15 6 -4 14 -3 18 3 3 5 1 10 -6 10 -8 0 -8 4 1 15 12 14
15 14 32 -1 17 -16 17 -18 1 -38z m410 48 c8 -9 -15 -44 -30 -44 -17 0 -25 17
-12 26 8 4 9 3 5 -4 -4 -7 -3 -12 3 -12 17 0 24 22 10 31 -11 7 -11 9 2 9 9 0
18 -3 22 -6z m-1083 -19 c-10 -12 -10 -19 -2 -27 12 -12 13 -10 16 14 1 13 26
24 26 11 -1 -19 -28 -43 -44 -37 -19 7 -21 25 -4 42 17 17 23 15 8 -3z m299
-36 c-11 -22 -18 -23 -42 -5 -12 9 -14 16 -8 21 14 8 33 -4 26 -16 -4 -5 -2
-9 3 -9 6 0 12 6 15 14 7 17 -16 39 -28 28 -5 -4 -5 -1 -1 6 14 23 48 -16 35
-39z m201 31 c-6 -11 -13 -20 -16 -20 -2 0 0 9 6 20 6 11 13 20 16 20 2 0 0
-9 -6 -20z m315 9 c-4 -6 -1 -9 7 -7 7 2 15 0 16 -4 1 -5 0 -8 -3 -8 -3 0 -15
0 -26 0 -18 0 -19 2 -9 15 14 17 24 20 15 4z m-261 -42 c-4 -13 -2 -17 5 -13
7 4 9 1 5 -8 -5 -13 -8 -13 -20 -2 -7 8 -19 17 -26 19 -10 4 -8 9 4 20 10 8
14 18 10 23 -4 4 1 2 11 -5 11 -9 15 -21 11 -34z m216 39 c0 -3 -4 -8 -10 -11
-5 -3 -10 -1 -10 4 0 6 5 11 10 11 6 0 10 -2 10 -4z m-840 -42 c0 -7 -4 -15
-9 -18 -5 -4 -7 2 -4 13 3 10 -1 22 -8 27 -9 5 -11 2 -6 -8 6 -18 -1 -30 -14
-22 -5 3 -4 14 2 25 8 16 13 18 25 8 8 -6 14 -17 14 -25z m270 -1 c0 -1 -11 2
-25 9 -13 6 -22 15 -19 19 4 7 44 -19 44 -28z m783 30 c-7 -2 -13 -9 -13 -14
0 -6 6 -7 13 -3 6 4 4 -1 -5 -12 -14 -15 -20 -16 -30 -5 -11 10 -9 11 6 5 13
-5 17 -4 12 4 -9 15 1 32 17 31 9 0 9 -2 0 -6z m-917 -19 c-3 -8 -1 -25 5 -37
10 -21 10 -21 -5 -3 -9 11 -16 14 -16 7 0 -7 -4 -9 -10 -6 -6 4 -4 16 6 31 18
27 29 32 20 8z m377 -9 c-3 -8 -1 -15 5 -15 6 0 13 6 15 13 4 9 6 9 6 -1 1 -7
-6 -15 -14 -18 -8 -4 -12 -11 -8 -18 3 -6 -3 -3 -15 8 -17 15 -19 23 -11 38
11 21 31 15 22 -7z m287 5 c11 -7 11 -10 2 -10 -8 0 -10 -5 -6 -12 5 -8 0 -7
-11 2 -17 14 -17 13 -12 -10 4 -14 4 -19 1 -12 -3 6 -10 10 -15 6 -5 -3 -4 6
3 20 12 29 16 30 38 16z m94 2 c2 -4 0 -14 -6 -22 -8 -12 -9 -11 -4 4 5 14 2
17 -9 12 -9 -3 -13 -2 -10 4 7 12 22 13 29 2z m-724 -11 c0 -6 -4 -12 -8 -15
-5 -3 -9 1 -9 9 0 8 4 15 9 15 4 0 8 -4 8 -9z m264 -26 c-4 -8 -11 -12 -17 -8
-6 4 -8 0 -4 -10 4 -11 2 -14 -8 -11 -20 8 -27 34 -14 50 15 18 51 0 43 -21z
m541 23 c1 -2 -7 -16 -17 -33 -16 -24 -19 -25 -15 -8 3 13 -1 24 -10 27 -21 9
-6 25 19 21 11 -3 22 -6 23 -7z m132 4 c16 -10 4 -27 -24 -34 -26 -7 -27 -5
-13 23 12 21 19 23 37 11z m-1047 -31 c0 -3 -5 -13 -10 -21 -9 -13 -12 -12
-25 4 -19 25 -1 53 21 35 8 -6 14 -14 14 -18z m195 11 c-3 -3 -11 0 -18 7 -9
10 -8 11 6 5 10 -3 15 -9 12 -12z m419 3 c-4 -8 -1 -15 5 -15 6 0 11 5 11 11
0 5 5 7 10 4 14 -8 13 -18 -4 -41 -14 -18 -15 -18 -25 9 -6 16 -9 33 -5 38 9
14 14 10 8 -6z m-352 -9 c15 -11 16 -16 4 -31 -10 -14 -15 -15 -21 -5 -5 9 -4
11 3 6 7 -4 12 -2 12 3 0 6 -5 11 -11 11 -5 0 -7 5 -4 10 3 6 1 10 -4 10 -6 0
-11 -7 -11 -17 0 -9 -3 -14 -6 -10 -8 8 3 37 13 37 4 0 16 -7 25 -14z m548
-20 c0 -6 -5 -5 -11 1 -6 6 -18 9 -25 6 -10 -4 -12 0 -8 10 5 13 9 14 25 4 10
-6 19 -16 19 -21z m-647 10 c13 -10 14 -15 5 -23 -40 -31 -77 -20 -52 15 18
25 23 26 47 8z m342 -8 c-5 -21 -5 -21 8 -6 19 23 42 8 24 -16 -12 -16 -16
-17 -35 -5 -16 10 -18 17 -11 31 13 25 22 23 14 -4z m365 6 c0 -8 -4 -12 -10
-9 -5 3 -10 10 -10 16 0 5 5 9 10 9 6 0 10 -7 10 -16z m-460 -2 c0 -5 -7 -17
-15 -28 -14 -18 -14 -17 -4 9 12 27 19 34 19 19z m550 1 c0 -5 -9 -19 -19 -32
-13 -17 -20 -20 -26 -12 -7 13 0 25 16 27 22 3 23 5 9 14 -13 8 -12 10 3 10 9
0 17 -3 17 -7z m-903 -50 c-12 -12 -18 -12 -35 -2 -16 10 -18 16 -9 30 10 16
13 16 34 2 21 -14 22 -18 10 -30z m383 28 c0 -4 -6 -8 -14 -8 -8 0 -12 6 -9
14 5 13 23 9 23 -6z m-107 -37 c-3 -8 -9 -14 -14 -14 -13 0 -11 18 4 23 7 4 3
8 -10 12 -13 4 -20 12 -17 17 9 14 44 -21 37 -38z m341 32 c-10 -8 -16 -18
-12 -22 4 -4 14 -1 23 6 9 7 17 11 20 8 2 -2 -4 -11 -15 -20 -16 -14 -20 -15
-31 -2 -9 11 -9 17 1 29 7 8 17 15 23 15 6 0 2 -6 -9 -14z m116 -11 c-7 -9
-15 -13 -19 -10 -3 3 1 10 9 15 21 14 24 12 10 -5z m210 0 c5 3 3 -9 -3 -26
-8 -20 -13 -25 -15 -15 -2 9 -8 16 -13 16 -6 0 -7 -5 -3 -12 4 -7 3 -8 -5 -4
-15 10 -3 29 15 22 8 -3 14 -1 14 4 0 6 -5 10 -11 10 -5 0 -7 5 -3 12 6 9 9 9
12 0 2 -7 7 -10 12 -7z m-790 1 c0 -3 -4 -8 -10 -11 -5 -3 -10 -1 -10 4 0 6 5
11 10 11 6 0 10 -2 10 -4z m388 -35 c-9 -15 -15 -17 -30 -8 -22 14 -23 27 -2
27 8 0 12 5 8 11 -4 8 0 8 15 0 17 -10 19 -15 9 -30z m-371 14 c0 -8 -5 -11
-10 -8 -6 4 -8 0 -4 -9 3 -9 3 -19 0 -22 -8 -8 -43 24 -43 38 0 6 5 3 11 -7
10 -18 12 -18 26 2 17 25 20 26 20 6z m203 9 c0 -8 -19 -13 -24 -6 -3 5 1 9 9
9 8 0 15 -2 15 -3z m74 -23 c-2 -3 -12 3 -22 13 -16 17 -16 18 5 5 12 -7 20
-15 17 -18z m318 11 c-7 -2 -9 -9 -6 -14 4 -7 2 -8 -4 -4 -6 4 -9 13 -6 21 4
8 11 12 17 8 8 -5 7 -8 -1 -11z m-705 -8 c12 -11 13 -18 4 -27 -8 -8 -14 -8
-23 1 -9 9 -9 12 1 12 7 0 9 5 6 10 -5 8 -11 7 -21 -1 -12 -10 -13 -9 -8 5 8
20 21 20 41 0z m356 -17 c-4 -6 0 -8 10 -4 11 4 14 2 10 -8 -5 -15 -35 -6 -48
15 -11 17 5 32 21 19 7 -6 11 -16 7 -22z m271 27 c19 -7 21 -28 3 -43 -10 -8
-18 -7 -32 3 -14 10 -15 15 -5 21 8 5 11 4 6 -3 -4 -7 1 -10 14 -9 25 2 26 13
3 26 -20 12 -13 14 11 5z m-347 -37 c-2 -6 -9 -12 -15 -13 -7 -1 -8 0 -2 3 5
2 10 9 10 14 0 6 -4 7 -10 4 -5 -3 -10 0 -11 7 0 7 -4 4 -9 -7 -6 -15 -9 -16
-9 -4 -1 9 2 19 5 22 10 10 46 -13 41 -26z m518 24 c3 -5 -4 -16 -15 -24 -11
-7 -17 -17 -13 -20 3 -4 2 -7 -4 -7 -18 0 -22 12 -11 36 11 24 32 32 43 15z
m-639 -16 c-3 -8 -1 -15 4 -15 6 0 10 5 10 11 0 5 5 7 11 3 7 -4 7 -9 2 -13
-5 -3 -12 -14 -16 -23 -3 -10 -12 -18 -18 -18 -8 0 -9 4 0 13 11 14 5 27 -11
27 -5 0 -6 -4 -3 -10 3 -5 1 -10 -4 -10 -16 0 -13 20 4 26 8 4 12 10 9 15 -3
5 0 9 6 9 7 0 10 -7 6 -15z m574 11 c0 -3 -4 -8 -10 -11 -5 -3 -10 -1 -10 4 0
6 5 11 10 11 6 0 10 -2 10 -4z m-294 -28 c10 -12 13 -18 5 -13 -11 6 -13 4 -8
-8 9 -23 -4 -28 -33 -11 -14 7 -20 13 -13 14 6 0 15 9 18 20 8 25 8 25 31 -2z
m103 -4 c-14 -18 -24 -11 -15 11 3 9 11 13 16 10 8 -5 7 -11 -1 -21z m152 -9
c13 9 11 -9 -2 -22 -13 -13 -39 -6 -39 9 0 6 6 5 15 -2 11 -9 15 -9 15 -1 0 6
-7 14 -16 18 -13 5 -13 7 -2 14 8 6 14 3 16 -6 2 -9 8 -13 13 -10z m148 12
c11 -14 6 -27 -10 -27 -5 0 -6 8 -2 18 5 14 3 15 -7 5 -11 -10 -11 -15 0 -28
7 -8 10 -15 6 -15 -17 0 -21 3 -18 12 2 6 -4 8 -13 4 -13 -5 -13 -2 2 19 21
28 26 30 42 12z m-774 -16 c17 -11 17 -12 2 -7 -10 3 -25 6 -33 6 -8 0 -14 4
-14 9 0 12 20 9 45 -8z m250 -11 c-5 -8 -11 -8 -17 -2 -6 6 -7 16 -3 22 5 8
11 8 17 2 6 -6 7 -16 3 -22z m-87 8 c5 -7 7 -20 3 -29 -4 -12 -12 -14 -28 -8
-28 10 -30 19 -3 14 11 -2 20 0 20 6 0 5 -4 9 -10 9 -5 0 -10 5 -10 10 0 14
16 13 28 -2z m351 -4 c4 3 13 1 20 -3 9 -6 10 -11 2 -15 -6 -4 -11 -2 -11 4 0
6 -5 8 -10 5 -8 -5 -7 -11 1 -21 8 -10 8 -14 1 -14 -15 0 -30 32 -24 50 4 11
7 11 10 2 2 -6 7 -10 11 -8z m-243 -20 c-4 -9 -9 -15 -11 -12 -3 3 -3 13 1 22
4 9 9 15 11 12 3 -3 3 -13 -1 -22z m162 -24 c-9 -14 -16 -16 -30 -9 -21 11
-23 20 -6 37 7 7 17 8 29 1 16 -8 17 -13 7 -29z m242 15 c0 -9 -6 -12 -17 -8
-12 5 -14 3 -8 -7 6 -9 4 -11 -5 -5 -10 6 -10 11 3 20 9 7 13 16 9 20 -4 5 -1
5 6 1 6 -4 12 -14 12 -21z m-455 -5 c3 -5 -1 -10 -10 -10 -9 0 -13 5 -10 10 3
6 8 10 10 10 2 0 7 -4 10 -10z m115 -13 c9 -3 4 -6 -12 -6 -27 -1 -35 8 -21
22 4 4 9 3 12 -1 3 -5 13 -12 21 -15z m245 13 c3 -5 -1 -10 -9 -10 -9 0 -16 5
-16 10 0 6 4 10 9 10 6 0 13 -4 16 -10z m141 -29 c-4 -6 -14 -11 -22 -11 -12
0 -12 3 -2 20 7 11 16 16 21 11 5 -5 6 -14 3 -20z m-241 9 c3 -5 -1 -10 -10
-10 -9 0 -13 5 -10 10 3 6 8 10 10 10 2 0 7 -4 10 -10z m108 -7 c-7 -2 -21 -2
-30 0 -10 3 -4 5 12 5 17 0 24 -2 18 -5z m2557 -538 c0 -30 -4 -55 -10 -55 -5
0 -10 25 -10 55 0 30 5 55 10 55 6 0 10 -25 10 -55z m76 31 c13 -21 14 -29 2
-52 -7 -15 -20 -30 -28 -32 -12 -4 -11 -1 3 15 31 36 19 74 -28 86 -15 4 -14
5 7 6 19 1 33 -7 44 -23z m54 -31 c0 -30 -4 -55 -10 -55 -5 0 -10 25 -10 55 0
30 5 55 10 55 6 0 10 -25 10 -55z m74 9 c25 -45 35 -78 18 -58 -21 23 -62 104
-53 104 5 0 21 -21 35 -46z m81 -9 c0 -30 -3 -55 -7 -55 -5 0 -8 18 -8 41 0
27 -4 38 -11 33 -8 -4 -8 0 0 15 19 34 26 25 26 -34z m65 24 c7 -17 20 -37 28
-45 9 -10 11 -19 5 -25 -6 -6 -16 5 -28 31 -10 22 -22 40 -27 40 -4 0 -8 7 -8
15 0 25 17 17 30 -16z m90 -24 c0 -66 -16 -74 -22 -10 -4 50 -1 65 13 65 5 0
9 -25 9 -55z m-113 -42 c-3 -10 -5 -2 -5 17 0 19 2 27 5 18 2 -10 2 -26 0 -35z"/>
<path d="M3990 6614 c0 -39 59 -56 98 -28 12 8 22 11 22 6 0 -16 -36 -42 -68
-48 -25 -5 -35 -1 -56 21 -14 16 -26 34 -26 41 0 10 -16 14 -59 14 -33 0 -66
-3 -75 -6 -24 -9 -19 -45 13 -97 39 -60 94 -96 159 -104 45 -5 60 -2 117 26
55 27 70 41 95 84 16 29 30 64 30 80 l0 27 -125 0 c-109 0 -125 -2 -125 -16z
m100 -9 c-13 -15 -47 -20 -74 -9 -32 12 -15 24 35 24 45 0 50 -2 39 -15z m132
10 c12 -12 -15 -83 -43 -113 -44 -47 -100 -72 -160 -72 -64 0 -111 22 -148 69
-31 39 -57 88 -50 95 2 2 29 7 60 10 l56 7 21 -35 c33 -56 94 -61 149 -10 19
17 24 27 16 31 -7 2 -13 9 -13 14 0 10 103 13 112 4z"/>
<path d="M3680 6530 c-22 -44 -40 -87 -40 -95 0 -13 16 -15 105 -14 58 1 108
5 111 10 3 5 -4 18 -15 30 -29 31 -51 82 -51 118 0 29 -3 31 -35 31 -33 0 -36
-3 -75 -80z m101 22 c3 -23 15 -55 27 -72 12 -16 22 -31 22 -34 0 -7 -158 -18
-169 -12 -10 7 14 69 51 132 30 50 61 44 69 -14z"/>
<path d="M4161 5400 c-17 -23 -39 -66 -50 -95 -35 -92 -52 -360 -31 -490 5
-36 8 -1 9 122 2 264 20 357 88 456 36 52 22 59 -16 7z"/>
<path d="M4229 5264 c-7 -16 -14 -54 -16 -85 -6 -68 -1 -79 152 -324 204 -327
291 -494 375 -721 28 -77 54 -146 57 -154 3 -9 7 -11 10 -4 7 20 -85 261 -152
399 -72 148 -167 316 -296 521 -49 78 -98 161 -109 185 -23 53 -26 123 -5 163
10 20 12 33 6 39 -7 7 -14 0 -22 -19z"/>
<path d="M3740 4245 c0 -11 7 -14 24 -9 13 3 40 -2 61 -10 44 -19 45 -19 45
-5 0 14 -63 39 -100 39 -20 0 -30 -5 -30 -15z"/>
<path d="M4040 4240 c-31 -24 -19 -38 14 -16 14 9 39 16 56 16 16 0 30 5 30
10 0 18 -74 10 -100 -10z"/>
<path d="M171 3885 c-17 -26 -21 -39 -13 -47 7 -7 16 1 31 30 23 45 25 52 14
52 -5 0 -19 -16 -32 -35z"/>
<path d="M3140 2687 c0 -33 171 -307 192 -307 14 0 8 13 -30 64 -21 28 -65 96
-96 151 -66 114 -66 114 -66 92z"/>
<path d="M4005 2059 c-72 -41 -51 -139 32 -155 27 -5 37 -1 63 24 35 35 40 78
13 110 -22 25 -80 36 -108 21z m80 -21 c34 -15 36 -79 3 -102 -48 -34 -108 -4
-108 53 0 50 51 74 105 49z"/>
<path d="M3470 1396 c0 -2 7 -7 16 -10 8 -3 12 -2 9 4 -6 10 -25 14 -25 6z"/>
<path d="M3431 1346 c-9 -11 -8 -15 5 -20 22 -8 23 -8 20 9 -3 23 -12 27 -25
11z"/>
<path d="M3595 1310 c3 -5 11 -10 16 -10 6 0 7 5 4 10 -3 6 -11 10 -16 10 -6
0 -7 -4 -4 -10z"/>
<path d="M3450 1240 c0 -13 18 -22 24 -11 3 5 -1 11 -9 15 -8 3 -15 1 -15 -4z"/>
<path d="M3605 1219 c-4 -6 -5 -13 -2 -16 7 -7 27 6 27 18 0 12 -17 12 -25 -2z"/>
<path d="M3762 1209 c-10 -16 -9 -19 4 -19 8 0 13 4 10 9 -4 5 -1 11 6 13 7 3
8 7 2 11 -5 3 -15 -3 -22 -14z"/>
<path d="M4026 1211 c-3 -5 1 -12 10 -15 8 -3 13 -2 9 3 -3 5 1 12 7 14 8 4 7
6 -4 6 -9 1 -19 -3 -22 -8z"/>
<path d="M3400 1165 c7 -9 15 -13 17 -11 7 7 -7 26 -19 26 -6 0 -6 -6 2 -15z"/>
<path d="M3567 1163 c-4 -3 -7 -11 -7 -17 0 -6 5 -5 12 2 6 6 9 14 7 17 -3 3
-9 2 -12 -2z"/>
<path d="M4615 1160 c-3 -5 -1 -10 4 -10 6 0 11 5 11 10 0 6 -2 10 -4 10 -3 0
-8 -4 -11 -10z"/>
<path d="M4760 1159 c0 -5 5 -7 10 -4 6 3 10 8 10 11 0 2 -4 4 -10 4 -5 0 -10
-5 -10 -11z"/>
<path d="M3715 1140 c-3 -6 1 -7 9 -4 18 7 21 14 7 14 -6 0 -13 -4 -16 -10z"/>
<path d="M4523 1145 c0 -7 6 -11 14 -8 7 3 13 6 13 8 0 2 -6 5 -13 8 -8 3 -14
-1 -14 -8z"/>
<path d="M4145 1131 c-3 -5 -2 -12 3 -15 5 -3 9 1 9 9 0 17 -3 19 -12 6z"/>
<path d="M3770 1112 c0 -5 7 -13 16 -16 10 -4 14 -1 12 6 -5 15 -28 23 -28 10z"/>
<path d="M4320 1096 c0 -8 4 -18 10 -21 6 -3 7 1 4 10 -5 11 -2 14 12 9 16 -5
16 -4 4 5 -21 15 -30 14 -30 -3z"/>
<path d="M4210 1085 c-8 -9 -8 -15 -2 -15 12 0 26 19 19 26 -2 2 -10 -2 -17
-11z"/>
<path d="M3424 1075 c3 -22 13 -27 19 -11 3 8 0 17 -8 19 -7 3 -12 0 -11 -8z"/>
<path d="M3672 1081 c2 -7 7 -12 11 -12 12 1 9 15 -3 20 -7 2 -11 -2 -8 -8z"/>
<path d="M4636 1073 c-6 -14 -5 -15 5 -6 7 7 10 15 7 18 -3 3 -9 -2 -12 -12z"/>
<path d="M3825 1050 c-3 -5 -1 -10 4 -10 6 0 11 5 11 10 0 6 -2 10 -4 10 -3 0
-8 -4 -11 -10z"/>
<path d="M3725 1040 c-3 -5 1 -10 10 -10 10 0 14 -5 9 -12 -5 -10 -4 -10 6 -1
7 6 9 16 6 22 -9 14 -23 14 -31 1z"/>
<path d="M4690 1050 c0 -5 5 -10 11 -10 5 0 7 5 4 10 -3 6 -8 10 -11 10 -2 0
-4 -4 -4 -10z"/>
<path d="M4001 1036 c-9 -10 -8 -15 2 -19 8 -3 13 3 14 14 2 23 -1 24 -16 5z"/>
<path d="M4296 1023 c-6 -14 -5 -15 5 -6 7 7 10 15 7 18 -3 3 -9 -2 -12 -12z"/>
<path d="M4175 1020 c3 -5 13 -10 21 -10 8 0 12 5 9 10 -3 6 -13 10 -21 10 -8
0 -12 -4 -9 -10z"/>
<path d="M3628 1003 c7 -3 16 -2 19 1 4 3 -2 6 -13 5 -11 0 -14 -3 -6 -6z"/>
<path d="M3890 998 c0 -14 18 -17 28 -5 8 10 6 13 -9 13 -10 0 -19 -4 -19 -8z"/>
<path d="M3685 980 c-3 -5 -3 -15 1 -21 6 -11 23 6 24 24 0 10 -18 9 -25 -3z"/>
<path d="M4495 981 c-6 -11 9 -23 19 -14 9 9 7 23 -3 23 -6 0 -12 -4 -16 -9z"/>
<path d="M4647 979 c-4 -16 -3 -18 9 -8 7 6 11 15 8 20 -8 13 -11 11 -17 -12z"/>
<path d="M4396 955 c-3 -9 0 -15 9 -15 9 0 12 6 9 15 -4 8 -7 15 -9 15 -2 0
-5 -7 -9 -15z"/>
<path d="M3870 939 c0 -5 5 -7 10 -4 6 3 10 8 10 11 0 2 -4 4 -10 4 -5 0 -10
-5 -10 -11z"/>
<path d="M4556 945 c-9 -26 -7 -32 5 -12 6 10 9 21 6 23 -2 3 -7 -2 -11 -11z"/>
<path d="M4456 915 c-3 -9 0 -15 9 -15 9 0 12 6 9 15 -4 8 -7 15 -9 15 -2 0
-5 -7 -9 -15z"/>
<path d="M4203 909 c3 -9 0 -22 -6 -28 -8 -8 -8 -11 1 -11 19 0 27 30 12 43
-10 9 -12 9 -7 -4z"/>
<path d="M4086 873 c-6 -14 -5 -15 5 -6 7 7 10 15 7 18 -3 3 -9 -2 -12 -12z"/>
<path d="M3876 844 c-6 -16 2 -18 22 -5 11 7 11 9 -1 14 -9 3 -18 -1 -21 -9z"/>
<path d="M3510 830 c0 -19 3 -21 12 -12 9 9 9 15 0 24 -9 9 -12 7 -12 -12z"/>
<path d="M4165 819 c-4 -6 -5 -12 -2 -15 2 -3 7 2 10 11 7 17 1 20 -8 4z"/>
<path d="M3670 815 c-7 -9 -10 -18 -6 -22 3 -3 6 -1 6 5 0 6 7 9 15 6 8 -4 15
-1 15 4 0 19 -17 22 -30 7z"/>
<path d="M4055 800 c-3 -5 -1 -10 4 -10 6 0 11 5 11 10 0 6 -2 10 -4 10 -3 0
-8 -4 -11 -10z"/>
<path d="M3562 788 c5 -15 28 -23 28 -10 0 5 -7 13 -16 16 -10 4 -14 1 -12 -6z"/>
<path d="M4120 759 c0 -5 5 -7 10 -4 6 3 10 8 10 11 0 2 -4 4 -10 4 -5 0 -10
-5 -10 -11z"/>
<path d="M4425 740 c-3 -6 1 -7 9 -4 18 7 21 14 7 14 -6 0 -13 -4 -16 -10z"/>
<path d="M4067 706 c-3 -8 0 -16 6 -19 7 -3 13 3 13 14 0 22 -12 25 -19 5z"/>
<path d="M4127 667 c-3 -8 1 -14 9 -14 16 0 19 13 5 21 -5 3 -11 0 -14 -7z"/>
<path d="M6115 4930 c3 -5 17 -10 31 -10 13 0 33 -9 44 -20 20 -20 88 -28 124
-14 26 10 7 24 -32 24 -20 0 -64 7 -97 15 -73 17 -78 18 -70 5z"/>
<path d="M6060 4920 c-13 -8 -12 -10 3 -10 9 0 17 5 17 10 0 12 -1 12 -20 0z"/>
<path d="M6407 4840 c6 -23 19 -26 26 -6 6 16 -1 26 -19 26 -7 0 -10 -8 -7
-20z"/>
<path d="M5900 4792 c0 -5 14 -7 30 -4 17 2 30 6 30 8 0 2 -13 4 -30 4 -16 0
-30 -4 -30 -8z"/>
<path d="M6550 4793 c0 -42 28 -156 46 -192 40 -74 70 -123 92 -148 11 -12 23
-28 25 -35 3 -7 6 32 6 87 1 108 -20 179 -56 192 -10 3 -39 27 -65 53 -27 26
-48 46 -48 43z m100 -204 c0 -5 -4 -9 -10 -9 -5 0 -10 7 -10 16 0 8 5 12 10 9
6 -3 10 -10 10 -16z m20 -49 c0 -5 -2 -10 -4 -10 -3 0 -8 5 -11 10 -3 6 -1 10
4 10 6 0 11 -4 11 -10z"/>
<path d="M1552 4763 c-6 -16 -14 -45 -18 -65 -3 -21 -15 -47 -25 -59 -21 -25
-23 -29 -10 -29 21 0 63 80 67 129 5 57 1 64 -14 24z"/>
<path d="M5846 4725 c-3 -9 3 -31 14 -50 11 -20 20 -37 20 -39 0 -11 -35 -15
-47 -5 -10 9 -17 9 -25 1 -17 -17 -8 -21 63 -28 63 -6 64 -5 41 13 -21 18 -21
19 -3 30 15 10 22 9 35 -6 9 -10 13 -21 9 -24 -8 -9 52 -9 140 0 58 5 67 9 67
26 0 18 -5 19 -75 15 -42 -3 -78 -1 -81 3 -3 5 -18 9 -33 9 -20 0 -30 6 -34
20 -3 11 -14 20 -24 20 -10 0 -28 7 -40 15 -19 13 -22 13 -27 0z"/>
<path d="M1529 4521 c26 -49 26 -51 2 -51 -10 0 -24 -7 -31 -15 -10 -12 -16
-12 -26 -4 -8 6 -20 9 -29 6 -8 -4 -17 -2 -20 3 -4 6 -17 7 -30 4 -18 -5 -25
0 -33 23 -9 25 -10 26 -11 5 -1 -12 -8 -38 -15 -57 -18 -42 -11 -44 25 -9 30
29 59 27 59 -4 0 -55 104 -85 134 -39 27 42 28 88 4 131 -32 55 -56 61 -29 7z"/>
<path d="M40 4463 c0 -7 33 -32 43 -33 16 0 5 16 -18 27 -14 6 -25 9 -25 6z"/>
<path d="M28 4365 c-8 -8 3 -65 13 -65 5 0 9 16 9 35 0 32 -8 43 -22 30z"/>
<path d="M5835 4310 c3 -5 8 -10 11 -10 2 0 4 5 4 10 0 6 -5 10 -11 10 -5 0
-7 -4 -4 -10z"/>
<path d="M1502 4193 c-20 -30 -22 -44 -17 -84 5 -36 3 -53 -11 -73 -9 -15 -14
-30 -10 -34 10 -10 44 38 52 73 4 17 20 46 36 65 22 27 25 36 13 38 -8 2 -18
14 -21 28 -8 32 -15 30 -42 -13z"/>
<path d="M5718 4143 c7 -3 16 -2 19 1 4 3 -2 6 -13 5 -11 0 -14 -3 -6 -6z"/>
<path d="M1428 4089 c-19 -11 -24 -29 -8 -29 5 0 14 9 20 20 12 23 12 23 -12
9z"/>
<path d="M668 4058 c12 -12 24 -19 28 -15 10 10 -16 37 -34 37 -13 0 -12 -4 6
-22z"/>
<path d="M7024 3500 c3 -70 9 -97 26 -125 12 -19 26 -35 30 -35 18 0 124 -148
161 -226 22 -45 46 -87 54 -94 8 -7 15 -20 15 -29 0 -18 18 -41 32 -41 4 0 8
41 8 91 l0 90 -50 51 c-27 28 -50 55 -50 59 0 5 -5 9 -11 9 -13 0 -39 25 -39
39 0 5 -20 31 -45 58 -25 26 -45 53 -45 61 0 7 -8 27 -17 45 -9 18 -17 39 -18
47 -6 62 -17 90 -36 90 -18 0 -19 -6 -15 -90z"/>
<path d="M7175 3410 c3 -5 10 -10 16 -10 5 0 9 5 9 10 0 6 -7 10 -16 10 -8 0
-12 -4 -9 -10z"/>
<path d="M7215 3400 c3 -5 11 -10 16 -10 6 0 7 5 4 10 -3 6 -11 10 -16 10 -6
0 -7 -4 -4 -10z"/>
</g>
</svg>
